<svg xmlns="http://www.w3.org/2000/svg" width="449.854" height="327.76" viewBox="0 0 449.854 327.76"><g transform="translate(322.291 -26.154)" opacity="0.09"><g transform="translate(-322.291 26.154)"><g transform="translate(447.736 325.749)"><path d="M98.134,333.432l-.355-.354,1.3-1.3.355.354Z" transform="translate(-97.779 -331.775)" fill="#5a798f"/></g><path d="M78.643,334.29s5.414-5.412,10.826-10.827c1.361-1.344,2.683-2.729,3.974-3.976,1.26-1.278,2.442-2.463,3.47-3.466,1.01-1.018,1.852-1.867,2.444-2.461s.939-.922.939-.922l.45.45s-.321.356-.922.939-1.443,1.431-2.462,2.444c-1,1.026-2.189,2.208-3.465,3.47-1.247,1.289-2.634,2.61-3.978,3.971L79.093,334.74Z" transform="translate(348.697 -7.286)" fill="#5a798f"/><path d="M59.5,335.494l41.99-42.014.591.591L60.063,336.06Z" transform="translate(347.436 -8.548)" fill="#5a798f"/><path d="M40.337,336.683l.706-.693c.464-.45,1.134-1.12,1.977-1.981,1.7-1.71,4.128-4.154,7.043-7.085,5.837-5.852,13.623-13.654,21.407-21.459l31.195-31.155.757.758L72.266,306.262l-21.46,21.407c-2.931,2.915-5.373,5.342-7.082,7.043-.863.843-1.533,1.513-1.983,1.975l-.695.706Z" transform="translate(346.174 -9.81)" fill="#5a798f"/><path d="M21.19,337.887l41.255-41.444L90.89,268.03c7.78-7.725,12.965-12.878,12.965-12.878l.9.9L91.875,269.016c-7.749,7.757-18.08,18.1-28.413,28.444-20.721,20.629-41.444,41.256-41.444,41.256Z" transform="translate(344.913 -11.072)" fill="#5a798f"/><path d="M2.044,339.091s1.632-1.588,4.415-4.44c2.8-2.831,6.81-6.878,11.615-11.733L53.393,287.39l18.929-18.908c6.054-6.022,11.7-11.643,16.547-16.46s8.89-8.823,11.717-11.632c1.418-1.4,2.531-2.5,3.289-3.251s1.17-1.146,1.17-1.146l1.04,1.041s-.387.419-1.147,1.168-1.85,1.874-3.252,3.289L90.058,253.21c-4.818,4.844-10.438,10.494-16.46,16.548s-12.473,12.484-18.909,18.93L19.161,324.006c-4.855,4.8-8.9,8.809-11.733,11.611-2.85,2.785-4.438,4.418-4.438,4.418Z" transform="translate(343.652 -12.334)" fill="#5a798f"/><path d="M-17.082,340.317l19.163-19.4,19.646-19.881c7.207-7.252,14.9-14.988,22.582-22.726,7.721-7.7,15.441-15.409,22.679-22.63L86.835,236l19.4-19.163,1.182,1.183-19.164,19.4c-5.76,5.808-12.479,12.586-19.679,19.847-7.223,7.236-14.927,14.957-22.63,22.678L23.213,302.525,3.335,322.17l-19.4,19.163Z" transform="translate(342.392 -13.596)" fill="#5a798f"/><path d="M-36.2,341.551s2.256-2.233,6.129-6.222c1.973-1.958,4.317-4.386,7.035-7.144s5.778-5.872,9.12-9.27l22.841-23.2c8.385-8.461,17.328-17.485,26.273-26.51,4.49-4.492,8.983-8.984,13.4-13.409,4.436-4.406,8.8-8.745,13.026-12.944l23.174-22.868,22.652-22.271,1.253,1.253s-8.91,9.06-22.271,22.65c-6.694,6.782-14.5,14.7-22.87,23.176L50.626,257.815c-4.422,4.419-8.915,8.912-13.407,13.4L10.709,297.493c-8.489,8.356-16.412,16.155-23.2,22.839l-9.271,9.121c-2.756,2.717-5.186,5.061-7.143,7.034-3.988,3.872-6.224,6.131-6.224,6.129Z" transform="translate(341.133 -14.855)" fill="#5a798f"/><path d="M-55.288,342.809l1.84-1.844,5.156-5.261c4.44-4.534,10.784-11.01,18.4-18.784s16.492-16.841,26-26.557l14.706-14.94c5.03-5.067,10.093-10.259,15.236-15.372l15.306-15.3c5.074-5.023,10.067-9.965,14.9-14.749,9.7-9.526,18.759-18.419,26.522-26.04,15.557-15.212,25.926-25.354,25.926-25.354l1.276,1.276s-10.14,10.371-25.354,25.926L58.585,232.333c-4.784,4.832-9.727,9.824-14.748,14.9-5.049,5.048-10.176,10.177-15.3,15.3-5.111,5.144-10.3,10.207-15.372,15.236-5.087,5.008-10.094,9.936-14.938,14.708-9.717,9.513-18.786,18.392-26.559,26s-14.248,13.956-18.782,18.4l-5.261,5.155-1.846,1.84Z" transform="translate(339.876 -16.113)" fill="#5a798f"/><path d="M-74.359,344.091l2.064-2.082,5.8-5.91c4.982-5.1,12.1-12.4,20.639-21.149s18.482-18.986,29.144-29.938l16.474-16.85c5.607-5.737,11.351-11.522,17.1-17.3l4.3-4.342q2.163-2.152,4.323-4.3c2.857-2.887,5.75-5.713,8.592-8.544l8.483-8.381c1.423-1.358,2.787-2.756,4.163-4.124,1.407-1.337,2.781-2.688,4.141-4.031l29.925-29.154c17.51-17.075,29.184-28.455,29.184-28.455l1.253,1.252L82.767,189.962c-8.532,8.76-18.488,18.978-29.154,29.926-1.344,1.359-2.692,2.733-4.029,4.14-1.369,1.376-2.768,2.742-4.126,4.164l-8.381,8.483c-2.832,2.843-5.657,5.736-8.543,8.591l-4.3,4.324-4.343,4.3c-5.78,5.747-11.564,11.491-17.3,17.1S-8.8,282.121-14.264,287.465c-10.953,10.663-21.174,20.614-29.937,29.143l-21.15,20.638-5.91,5.8c-1.358,1.345-2.079,2.064-2.079,2.064Z" transform="translate(338.62 -17.37)" fill="#5a798f"/><path d="M-93.4,345.393s.811-.787,2.287-2.311,3.66-3.739,6.43-6.57C-79.162,330.837-71.27,322.73-61.8,313c9.442-9.757,20.457-21.142,32.259-33.339l8.993-9.28,4.576-4.74q2.317-2.368,4.656-4.755c.788-.786,1.556-1.6,2.318-2.415s1.577-1.586,2.368-2.383,1.572-1.6,2.347-2.417l2.363-2.413,9.53-9.644q4.79-4.809,9.57-9.606c1.621-1.564,3.2-3.169,4.8-4.74.788-.8,1.6-1.572,2.4-2.352l2.367-2.367L45.455,204.26,78.8,172l23.56-22.839c5.666-5.533,8.905-8.693,8.905-8.693l1.182,1.182-8.694,8.906c-5.514,5.685-13.388,13.81-22.839,23.557S60.451,195.257,48.65,207.455l-18.288,18.71-2.367,2.367c-.78.8-1.553,1.612-2.35,2.4-1.574,1.6-3.177,3.177-4.742,4.8L11.3,245.3l-9.644,9.53L-.76,257.193c-.816.774-1.633,1.547-2.417,2.348s-1.572,1.6-2.383,2.367-1.629,1.53-2.415,2.318q-2.385,2.336-4.753,4.656l-4.741,4.576q-4.705,4.558-9.282,8.993c-12.2,11.8-23.582,22.816-33.34,32.259-9.729,9.469-17.836,17.362-23.511,22.886-2.83,2.771-5.052,4.949-6.569,6.432s-2.312,2.286-2.312,2.286Z" transform="translate(337.366 -18.625)" fill="#5a798f"/><path d="M-112.453,346.694s.22-.221.646-.646,1.057-1.057,1.865-1.9l7.083-7.212,25.151-25.857,16.748-17.331c5.925-6.168,12.17-12.676,18.632-19.406,3.243-3.354,6.453-6.849,9.834-10.255q2.486-2.608,5-5.246c1.716-1.716,3.381-3.5,5.087-5.257,6.737-7.116,13.775-14.147,20.727-21.267,14-14.147,28.283-28.005,41.755-40.915,13.461-12.926,26.024-24.987,36.791-35.327,10.725-10.381,19.662-19.036,25.917-25.091l9.793-9.555,1.064,1.064-9.553,9.794L78.99,158.205,43.665,195C30.754,208.469,16.9,222.754,2.751,236.752-4.372,243.7-11.4,250.743-18.519,257.478c-1.755,1.706-3.542,3.372-5.257,5.087q-2.635,2.51-5.244,5c-3.408,3.382-6.9,6.59-10.257,9.834l-19.406,18.632-17.331,16.747c-10.7,10.409-19.616,19.082-25.858,25.152l-7.211,7.083c-.841.807-1.474,1.438-1.9,1.865l-.646.647Z" transform="translate(336.111 -19.879)" fill="#5a798f"/><path d="M-131.479,348.018s3.8-3.87,10.454-10.642l27.44-28.181c5.646-5.862,11.76-12.214,18.229-18.931l20.246-21.23,21.6-22.748c7.3-7.8,15.041-15.407,22.706-23.084l22.895-22.9q2.839-2.825,5.653-5.625c.929-.943,1.924-1.815,2.874-2.725s1.9-1.822,2.852-2.717c3.813-3.589,7.511-7.2,11.244-10.663l21.253-20.222q5.062-4.828,9.829-9.381,4.75-4.553,9.162-8.787c11.7-11.318,21.443-20.751,28.266-27.354L113.9,102.406l.922.922s-3.79,3.88-10.427,10.669c-6.6,6.824-16.035,16.568-27.354,28.266q-4.224,4.406-8.787,9.162l-9.381,9.829c-6.428,6.758-13.208,13.882-20.221,21.253-3.46,3.733-7.074,7.432-10.663,11.244-.9.955-1.795,1.913-2.717,2.852s-1.782,1.944-2.723,2.875l-5.627,5.652-22.9,22.895c-7.677,7.665-15.283,15.4-23.084,22.706l-22.748,21.6-21.23,20.247L-91.97,310.811l-28.18,27.44c-6.772,6.651-10.643,10.455-10.643,10.455Z" transform="translate(334.858 -21.132)" fill="#5a798f"/><path d="M-150.515,349.331l2.974-3c1.929-1.964,4.758-4.848,8.36-8.516s7.961-8.134,12.969-13.251c4.992-5.133,10.623-10.925,16.766-17.242,6.114-6.349,12.737-13.226,19.74-20.5s14.312-15.023,21.883-23.03c7.6-7.979,15.267-16.4,23.309-24.719l24.793-24.791L5.072,189.487q6.133-6.133,12.153-12.153c1-1,1.992-2.011,3.021-2.973s2.086-1.891,3.084-2.871c2.012-1.94,4.061-3.82,6.074-5.7,8.037-7.541,15.811-14.825,23.112-21.8L73.1,124.335,90.4,107.62l13.293-12.928L115.222,83.38l.78.781L104.691,95.694c-3.585,3.687-7.937,8.16-12.929,13.294-4.975,5.148-10.59,10.956-16.715,17.295L55.394,146.868c-6.978,7.3-14.261,15.076-21.8,23.111-1.881,2.013-3.761,4.062-5.7,6.076-.981,1-1.9,2.064-2.87,3.081s-1.973,2.018-2.973,3.021L9.895,194.31C1.718,202.488-6.591,210.8-14.9,219.1L-39.69,243.9c-8.315,8.042-16.739,15.713-24.719,23.309-8.006,7.571-15.748,14.887-23.03,21.883s-14.151,13.627-20.5,19.74c-6.318,6.143-12.11,11.774-17.242,16.766l-13.252,12.969-8.516,8.361c-1.955,1.938-3,2.973-3,2.973Z" transform="translate(333.604 -22.385)" fill="#5a798f"/><path d="M-169.552,350.641s4.442-4.5,12.214-12.382c3.879-3.947,8.59-8.739,13.992-14.237l18.067-18.545,21.265-22.054c7.482-7.889,15.372-16.211,23.534-24.816q6.074-6.505,12.333-13.207,3.116-3.353,6.273-6.745c2.119-2.242,4.354-4.392,6.542-6.607l26.69-26.69,26.69-26.69q6.6-6.6,13.084-13.085l3.226-3.226c1.083-1.059,2.1-2.18,3.25-3.158,1.132-1,2.2-2.044,3.291-3.073s2.187-2.029,3.274-3.037c8.726-8.044,17.045-15.934,24.935-23.418,7.924-7.448,15.287-14.618,22.157-21.163,6.815-6.6,13.064-12.65,18.6-18.012,5.514-5.386,10.321-10.08,14.279-13.948l12.411-12.182.614.614L104.99,77.392c-3.868,3.958-8.562,8.767-13.948,14.279l-18.011,18.6c-6.545,6.869-13.714,14.232-21.164,22.156-7.481,7.89-15.373,16.209-23.417,24.935q-1.512,1.631-3.038,3.278c-1.029,1.084-2.075,2.156-3.073,3.289-.978,1.151-2.1,2.167-3.158,3.251l-3.226,3.225q-6.472,6.474-13.083,13.083l-26.69,26.69c-8.944,8.944-17.887,17.886-26.69,26.69-2.215,2.19-4.366,4.424-6.608,6.543l-6.745,6.275-13.206,12.33-24.815,23.534-22.056,21.265-18.544,18.067c-5.5,5.4-10.291,10.114-14.238,13.992L-169.1,351.091Z" transform="translate(332.35 -23.637)" fill="#5a798f"/><path d="M-188.588,351.953s4.761-4.817,13.093-13.251l15-15.235,19.386-19.831c7.109-7.258,14.722-15.211,22.809-23.589,8.056-8.41,16.527-17.3,25.215-26.575,2.192-2.3,4.363-4.656,6.561-7.016,2.263-2.3,4.418-4.737,6.653-7.122q3.332-3.6,6.7-7.245c2.291-2.381,4.672-4.7,7.019-7.063,9.43-9.431,19.01-19.011,28.589-28.588s19.16-19.161,28.589-28.589L5.039,153.834c2.321-2.3,4.568-4.646,6.959-6.815l3.547-3.269c1.16-1.1,2.315-2.2,3.514-3.25,9.32-8.641,18.235-17.089,26.692-25.1l12.264-11.722Q63.939,97.987,69.445,92.7c7.288-7.083,13.969-13.572,19.891-19.325,5.9-5.777,11.038-10.815,15.272-14.964l13.275-13.067.473.472L105.289,59.09c-4.149,4.234-9.186,9.373-14.964,15.272L71,94.252q-5.282,5.5-10.987,11.428-5.677,5.939-11.722,12.264c-8.006,8.459-16.454,17.372-25.1,26.692-1.047,1.2-2.145,2.354-3.25,3.514q-1.626,1.768-3.268,3.547c-2.169,2.392-4.515,4.639-6.816,6.96L-4.15,172.672c-9.43,9.429-19.01,19.009-28.588,28.589s-19.16,19.159-28.589,28.59c-2.368,2.346-4.683,4.727-7.065,7.018l-7.244,6.7c-2.388,2.235-4.823,4.39-7.122,6.653-2.362,2.2-4.719,4.369-7.017,6.561-9.274,8.687-18.165,17.16-26.576,25.214-8.377,8.088-16.329,15.7-23.587,22.81s-13.928,13.614-19.831,19.385c-5.882,5.794-11.012,10.842-15.236,15l-13.251,13.093Z" transform="translate(331.097 -24.89)" fill="#5a798f"/><path d="M-207.635,353.242s5.079-5.129,13.966-14.108l16-16.217,20.7-21.1c7.553-7.761,15.753-16.152,24.343-25.106,8.626-8.92,17.644-18.406,26.939-28.256q6.974-7.378,14.094-15.055,3.557-3.831,7.153-7.708c2.344-2.634,4.875-5.107,7.386-7.621l30.468-30.469c10.209-10.209,20.418-20.419,30.468-30.467L-1.184,142.2c2.418-2.507,5.01-4.811,7.524-7.157l7.522-6.948c9.894-9.247,19.415-18.23,28.39-26.8S59.664,84.573,67.458,77.055c15.534-15.093,28.407-27.741,37.406-36.61L118.992,26.5l.354.354s-5.07,5.139-13.947,14.127S83.881,62.851,68.788,78.385C61.271,86.18,53.1,94.6,44.547,103.591s-17.554,18.5-26.8,28.391L10.8,139.5c-2.347,2.514-4.651,5.107-7.157,7.523q-7.388,7.388-14.935,14.935L-41.763,192.43-72.23,222.9c-2.514,2.511-4.988,5.043-7.621,7.386q-3.875,3.6-7.709,7.153-7.674,7.1-15.055,14.093c-9.849,9.3-19.334,18.314-28.254,26.941-8.955,8.589-17.347,16.789-25.107,24.342l-21.1,20.7c-6.262,6.178-11.721,11.566-16.216,16C-202.268,348.4-207.4,353.48-207.4,353.48Z" transform="translate(329.842 -26.131)" fill="#5a798f"/><path d="M-226.693,353.281l13.986-14.087c4.444-4.487,9.84-9.938,16.032-16.189l20.732-21.061c7.569-7.743,15.792-16.113,24.412-25.037,8.652-8.9,17.7-18.347,27.064-28.129l14.186-14.964q7.135-7.641,14.422-15.449c1.2-1.309,2.476-2.554,3.645-3.9l3.629-3.951q3.794-3.794,7.61-7.607l15.294-15.294c10.209-10.209,20.418-20.419,30.468-30.467q7.537-7.538,14.935-14.935l7.34-7.341c1.218-1.211,2.415-2.436,3.649-3.613q1.877-1.739,3.739-3.468C4.408,118.6,13.915,109.6,22.938,101.08S40.4,84.409,48.21,76.9c7.769-7.544,14.889-14.459,21.2-20.59,6.29-6.155,11.77-11.52,16.283-15.94,9-8.864,14.144-13.929,14.144-13.929l.472.472s-5.065,5.142-13.93,14.144c-4.418,4.513-9.785,9.995-15.939,16.283-6.131,6.312-13.046,13.431-20.59,21.2-7.507,7.806-15.638,16.264-24.178,25.272S8.152,122.345-1.032,132.3q-1.727,1.861-3.468,3.739c-1.178,1.234-2.4,2.431-3.613,3.65l-7.341,7.34q-7.388,7.388-14.935,14.935c-10.049,10.051-20.259,20.26-30.468,30.469L-76.15,207.727q-3.813,3.812-7.607,7.61l-3.95,3.629c-1.35,1.169-2.6,2.444-3.9,3.645q-7.8,7.278-15.449,14.422-7.585,7.191-14.964,14.187c-9.782,9.36-19.233,18.412-28.129,27.063-8.924,8.621-17.294,16.844-25.037,24.412l-21.06,20.732c-6.251,6.192-11.7,11.588-16.189,16.032l-14.089,13.988Z" transform="translate(328.587 -26.135)" fill="#5a798f"/><path d="M-245.763,353.308l14-14.073c8.887-8.977,21.584-21.8,36.82-37.2L-183.091,290l12.633-12.928,13.329-13.669c4.487-4.726,9.183-9.44,13.837-14.358,9.4-9.746,19.071-19.852,28.8-30.218q3.676-3.863,7.33-7.8c2.477-2.58,4.92-5.212,7.367-7.85,2.49-2.593,4.934-5.246,7.384-7.9,2.514-2.584,5.092-5.111,7.636-7.671,20.42-20.417,40.841-40.832,59.984-59.972L3.656,100.894c9.019-8.527,17.488-16.648,25.307-24.142L40.156,65.973,50.212,56.21,66.518,40.294c9.016-8.852,14.169-13.908,14.169-13.908l.59.592L67.369,41.146c-4.411,4.519-9.77,10.008-15.914,16.307q-4.6,4.732-9.763,10.054L30.911,78.7c-7.5,7.819-15.617,16.287-24.144,25.306-8.5,9.046-17.468,18.582-26.745,28.448L-79.95,192.437c-2.559,2.544-5.087,5.121-7.671,7.636-2.649,2.45-5.3,4.894-7.895,7.384-2.638,2.446-5.269,4.89-7.85,7.367q-3.931,3.66-7.8,7.33c-10.368,9.73-20.472,19.406-30.218,28.8-4.917,4.656-9.632,9.35-14.358,13.838q-6.995,6.819-13.669,13.328l-12.928,12.634q-6.24,6.143-12.038,11.849c-15.391,15.236-28.217,27.933-37.2,36.82-8.954,8.911-14.073,14-14.073,14Z" transform="translate(327.331 -26.139)" fill="#5a798f"/><path d="M-264.833,353.337l50.881-51.209c7.6-7.713,15.833-16.069,24.542-24.906,8.667-8.881,17.806-18.244,27.259-27.933s19.135-19.785,28.957-30.063l29.679-31.255c4.982-5.228,9.914-10.505,14.941-15.647Q-80.946,164.7-73.4,157.15l29.516-29.505c2.429-2.357,4.9-4.628,7.273-6.959q1.827-1.7,3.618-3.4c1.225-1.1,2.378-2.265,3.56-3.384l13.871-13.128C-6.58,92.212,1.911,84.111,9.749,76.638L31.02,56.116c6.3-6.141,11.8-11.493,16.322-15.9L61.522,26.32l.733.732L48.362,41.234l-15.9,16.32L11.937,78.825-12.2,104.135l-13.127,13.871c-1.12,1.182-2.282,2.336-3.385,3.56q-1.7,1.789-3.4,3.618c-2.331,2.372-4.6,4.844-6.959,7.275-9.569,9.571-19.458,19.464-29.5,29.515L-83.75,177.147c-5.142,5.028-10.419,9.959-15.647,14.941-10.472,9.944-20.946,19.889-31.255,29.68-10.277,9.822-20.36,19.518-30.063,28.957l-27.933,27.258c-8.837,8.71-17.193,16.943-24.906,24.544-30.726,30.527-51.209,50.881-51.209,50.881Z" transform="translate(326.075 -26.143)" fill="#5a798f"/><path d="M-283.914,353.353l50.929-51.161c7.615-7.7,15.863-16.04,24.589-24.86,8.693-8.854,17.861-18.191,27.344-27.848,9.433-9.71,19.182-19.742,29.087-29.936l14.885-15.461q7.457-7.8,14.951-15.634c10-10.416,19.978-20.859,29.9-31.041,9.938-10.159,19.766-20.112,29.456-29.563,9.661-9.481,19.139-18.508,28.088-27.1s17.432-16.7,25.253-24.2L11.834,56.024c6.308-6.133,11.809-11.479,16.339-15.882L38.657,29.889c2.4-2.381,3.712-3.624,3.712-3.624l.852.852s-1.243,1.307-3.625,3.711c-2.365,2.42-5.835,5.969-10.253,10.486S19.6,51.344,13.461,57.651C7.351,63.985.458,71.129-7.062,78.921c-7.492,7.821-15.612,16.292-24.2,25.255s-17.624,18.426-27.1,28.086c-9.451,9.691-19.4,19.517-29.563,29.457-10.182,9.918-20.627,19.891-31.041,29.894q-7.826,7.487-15.634,14.953-7.773,7.482-15.464,14.885c-10.193,9.905-20.225,19.653-29.934,29.086-9.658,9.484-18.995,18.65-27.848,27.344-8.821,8.727-17.161,16.975-24.86,24.59-30.7,30.558-51.161,50.928-51.161,50.928Z" transform="translate(324.819 -26.147)" fill="#5a798f"/><path d="M-302.995,353.368l50.964-51.126c7.625-7.688,15.887-16.016,24.625-24.823l27.415-27.777c18.961-19.325,39.126-39.994,59.165-60.791,20.066-20.769,40.094-41.577,59.272-60.683,9.567-9.572,18.965-18.68,27.849-27.343,8.921-8.627,17.356-16.781,25.14-24.308S-13.644,62.085-7.319,55.969L9.021,40.085c4.515-4.416,8.064-7.886,10.485-10.25,2.4-2.382,3.712-3.627,3.712-3.627l.971.97s-1.245,1.31-3.627,3.712c-2.365,2.421-5.835,5.968-10.25,10.486L-5.572,57.714C-11.69,64.04-18.591,71.177-26.12,78.96L-50.428,104.1c-8.662,8.885-17.77,18.281-27.345,27.85-19.106,19.177-39.913,39.206-60.681,59.272-20.8,20.038-41.468,40.2-60.791,59.163L-227.022,277.8c-8.808,8.739-17.137,17-24.824,24.628-30.675,30.576-51.126,50.963-51.126,50.963Z" transform="translate(323.562 -26.15)" fill="#5a798f"/><path d="M-322.087,353.37l51-51.091,24.663-24.788c8.727-8.82,17.93-18.122,27.45-27.741L-189.709,220c9.93-10.167,20.017-20.5,30.105-30.829,10.068-10.351,20.135-20.7,30.044-30.891,9.938-10.16,19.71-20.168,29.259-29.761l7.09-7.14c1.2-1.152,2.367-2.324,3.523-3.5s2.324-2.319,3.477-3.468q6.953-6.864,13.588-13.411c8.826-8.718,17.239-16.895,25-24.443,31.026-30.23,51.71-50.381,51.71-50.381l1.041,1.041-50.381,51.71c-7.548,7.763-15.726,16.178-24.443,25q-6.536,6.624-13.411,13.588-1.723,1.73-3.468,3.477c-1.175,1.155-2.344,2.324-3.495,3.523l-7.141,7.09c-9.594,9.549-19.6,19.321-29.763,29.259l-30.89,30.044-30.829,30.1c-10.132,9.967-20.1,19.777-29.753,29.267l-27.742,27.45c-8.794,8.752-17.11,17.026-24.787,24.662l-51.092,51Z" transform="translate(322.304 -26.153)" fill="#5a798f"/><path d="M-322.28,333.227s19.141-19.177,47.851-47.945l48.9-49.287c8.915-9.046,18.127-18.395,27.489-27.891,9.332-9.529,18.812-19.207,28.293-28.885l28.283-28.894c9.357-9.5,18.567-18.853,27.481-27.9q6.723-6.749,13.206-13.251,6.512-6.454,12.722-12.611,6.178-6.17,12.067-11.92c3.915-3.831,7.636-7.592,11.3-11.113l48.417-47.376,1.088,1.086-47.38,48.418c-3.517,3.665-7.28,7.386-11.109,11.3s-7.807,7.948-11.921,12.067L-98.2,111.747l-13.251,13.207c-9.049,8.912-18.4,18.124-27.9,27.481l-28.9,28.283-28.884,28.293-27.892,27.49-49.289,48.9-47.943,47.85Z" transform="translate(322.292 -26.154)" fill="#5a798f"/><path d="M-322.28,312.878l44.659-44.776,45.669-46c8.334-8.436,16.945-17.152,25.695-26.01l26.461-26.922c8.869-9.018,17.736-18.038,26.465-26.917s17.346-17.589,25.7-26.007c8.377-8.394,16.475-16.506,24.152-24.2l21.761-21.559,32.686-32.155L-36.62,26.154l1.089,1.086s-4.428,4.517-12.176,12.419S-66.558,58.82-79.864,72.344c-6.677,6.738-13.908,14.038-21.558,21.763-7.693,7.677-15.808,15.775-24.2,24.15-8.418,8.352-17.117,16.98-26.009,25.7-8.876,8.729-17.9,17.6-26.916,26.465l-26.92,26.461-26.011,25.694-46,45.669c-26.866,26.795-44.776,44.659-44.776,44.659Z" transform="translate(322.292 -26.154)" fill="#5a798f"/><path d="M-322.28,292.528s16.591-16.64,41.479-41.6c12.419-12.5,26.91-27.09,42.435-42.718,15.482-15.671,31.995-32.388,48.509-49.1s33.03-33.431,48.512-49.1c7.78-7.8,15.3-15.336,22.429-22.484,7.157-7.122,13.925-13.854,20.17-20.068C-86.21,55.064-75.765,44.74-68.453,37.513c3.659-3.61,6.532-6.447,8.493-8.381l3.016-2.957,1.039,1.041-2.955,3.016c-1.933,1.959-4.771,4.834-8.383,8.492-7.225,7.313-17.549,17.757-29.938,30.291-6.215,6.248-12.948,13.013-20.07,20.172-7.147,7.131-14.684,14.649-22.483,22.429l-49.1,48.512c-16.717,16.514-33.434,33.027-49.105,48.509l-42.719,42.434-41.6,41.479Z" transform="translate(322.292 -26.153)" fill="#5a798f"/><path d="M-322.291,272.164l38.311-38.4c22.978-23.053,53.53-53.876,84.046-84.732,15.27-15.418,30.538-30.835,44.855-45.288l20.705-20.77L-115.782,64.4l38.524-38.194.969.97L-114.48,65.7-133.047,84.3c-6.6,6.583-13.567,13.524-20.77,20.705l-45.288,44.854c-30.858,30.517-61.68,61.068-84.732,84.047l-38.406,38.31Z" transform="translate(322.291 -26.15)" fill="#5a798f"/><path d="M-322.291,251.811l35.132-35.226,77.126-77.662,41.188-41.483c13.179-13.2,25.48-25.528,36.025-36.091C-111.658,40.3-97.548,26.265-97.548,26.265l.852.852s-14.035,14.108-35.085,35.274c-10.564,10.541-22.888,22.842-36.092,36.022l-41.482,41.19-77.662,77.125-35.227,35.132Z" transform="translate(322.291 -26.147)" fill="#5a798f"/><path d="M-322.291,231.459s51.08-51.318,102.162-102.635c25.543-25.656,51.087-51.309,70.244-70.551C-130.656,39.1-117.839,26.32-117.839,26.32l.733.732L-149.057,59.1l-70.553,70.244L-322.244,231.506Z" transform="translate(322.291 -26.143)" fill="#5a798f"/><path d="M-322.291,211.1s46.022-46.2,92.043-92.4l63.288-63.518,28.843-28.8.59.592L-166.32,55.82c-17.324,17.263-40.422,40.274-63.52,63.288-46.2,46.024-92.4,92.046-92.4,92.046Z" transform="translate(322.291 -26.139)" fill="#5a798f"/><path d="M-322.291,190.752-158.406,26.443l.473.473L-322.244,190.8Z" transform="translate(322.291 -26.135)" fill="#5a798f"/><path d="M-322.291,170.4-178.7,26.5l.354.354-143.9,143.6Z" transform="translate(322.291 -26.131)" fill="#5a798f"/><path d="M-322.291,150.047-199,26.542l.26.26L-322.244,150.095Z" transform="translate(322.291 -26.128)" fill="#5a798f"/><path d="M-322.291,129.7l102.978-103.12.19.19L-322.244,129.741Z" transform="translate(322.291 -26.126)" fill="#5a798f"/><path d="M-322.291,109.344l82.665-82.735.119.119-82.737,82.663Z" transform="translate(322.291 -26.124)" fill="#5a798f"/><path d="M-322.28,89l62.327-62.374.071.071-62.374,62.328Z" transform="translate(322.292 -26.123)" fill="#5a798f"/><path d="M-322.28,68.654l41.99-42.012.047.046-42.013,41.991Z" transform="translate(322.292 -26.122)" fill="#5a798f"/><g transform="translate(0.012 0.53)"><path d="M-322.256,48.329l-.024-.025,21.652-21.652.024.025Z" transform="translate(322.28 -26.652)" fill="#5a798f"/></g><g transform="translate(0.012 0.53)"><path d="M-322.256,27.98l-.024-.025,1.3-1.3.024.025Z" transform="translate(322.28 -26.652)" fill="#5a798f"/></g></g></g></svg>