<svg xmlns="http://www.w3.org/2000/svg" width="335.456" height="545.254" viewBox="0 0 335.456 545.254"><g transform="translate(-453 -4290.246)" opacity="0.35"><g transform="translate(453 4352.216)" opacity="0.12"><g transform="translate(20.167 188.581)" style="isolation:isolate"><g transform="translate(11.559 4.763)" style="mix-blend-mode:multiply;isolation:isolate"><path d="M84.926,331.293H83.159l-.239-1.75c-.794-5.812-1.555-10.879-2.228-15.348-3.078-20.486-4.35-28.966,1.92-38.822,6.454-10.139,15.409-16.52,24.068-22.691,9.143-6.515,18.6-13.25,25.066-24.5,6.211-10.8,5.895-22.723-.826-31.127-8.033-10.046-23.077-12.869-40.254-7.551a128.11,128.11,0,0,0-21.8,9.05c-14.35,7.294-15.4,5.68-32.846-21.366-1.8-2.795-3.795-5.879-6-9.275l-.98-1.5,1.375-1.152c35.961-30.129,80.006-39.434,117.83-24.892,27.674,10.638,46.313,32.1,49.863,57.4,4.034,28.766-12,58.362-45.147,83.335-21.54,16.243-20.6,27.3-19.977,34.618.306,3.586.593,6.974-1.863,9.649C127,329.853,115.776,331.293,84.926,331.293Zm22.01-148.475c11.387,0,20.992,4.014,27.146,11.711,7.784,9.734,8.234,23.4,1.175,35.675-6.911,12.015-16.731,19.011-26.226,25.777-8.73,6.219-16.972,12.092-23,21.567-5.46,8.578-4.336,16.057-1.335,36.046.608,4.028,1.286,8.544,1.995,13.647,26.791-.053,38.464-1.361,41.449-4.609,1.195-1.306,1.1-3.149.808-6.567-.7-8.206-1.754-20.607,21.575-38.2,31.921-24.05,47.394-52.3,43.573-79.54-3.341-23.823-21.024-44.079-47.305-54.182C110.845,130.324,68.951,138.959,34.4,167.22q2.734,4.213,5.026,7.774c8.323,12.9,12.908,20,16.348,22.355,2.667,1.819,4.824.869,11.261-2.4a131.5,131.5,0,0,1,22.434-9.309A59.289,59.289,0,0,1,106.937,182.817Z" transform="translate(-29.039 -133.627)" fill="#f9f9f9"/></g><g transform="translate(53.866 222.128)" style="mix-blend-mode:multiply;isolation:isolate"><path d="M82.763,304.793c-15.814,0-32.832-10-32.832-31.959,0-21.895,17.019-31.868,32.834-31.868,16.409,0,33.023,10.947,33.023,31.868,0,9.84-3.594,18.128-10.4,23.971A34.6,34.6,0,0,1,82.763,304.793Zm0-59.778c-13.864,0-28.784,8.706-28.784,27.818,0,19.175,14.921,27.909,28.782,27.909,13.955,0,28.974-8.734,28.974-27.909C111.738,253.721,96.718,245.015,82.765,245.015Z" transform="translate(-49.931 -240.965)" fill="#f9f9f9"/></g><g style="mix-blend-mode:multiply;isolation:isolate"><g transform="translate(51.919 139.079)"><path d="M64.5,272.05H55.1l-1.276-9.311c-.753-5.52-1.478-10.366-2.122-14.659l-.089-.583c-3.218-21.433-4.836-32.19,3.194-44.808q.9-1.412,1.843-2.734l3.3,2.351q-.884,1.239-1.725,2.556c-7.215,11.342-5.674,21.6-2.6,42.034l.087.583c.646,4.311,1.375,9.172,2.132,14.712L58.63,268H64.5c33.213,0,44.349-1.669,49.652-7.442a12.474,12.474,0,0,0,3.266-8.2l4.042.221a16.527,16.527,0,0,1-4.326,10.719C110.745,270.252,99.923,272.05,64.5,272.05Z" transform="translate(-48.969 -199.954)" fill="#f9f9f9"/></g><g transform="translate(86.614 62.688)"><path d="M93.4,185.6l-4.026-.444a18.469,18.469,0,0,0,.111-2.023,15.884,15.884,0,0,0-2.11-8.07c-3.548-6.134-11.379-9.358-21-8.7l-.275-4.04c11.253-.772,20.431,3.2,24.777,10.711a19.888,19.888,0,0,1,2.655,10.1A22.537,22.537,0,0,1,93.4,185.6Z" transform="translate(-66.102 -162.231)" fill="#f9f9f9"/></g><path d="M64.32,213.482c-10.992,0-16.111-7.93-29.791-29.124l-.111-.174c-1.77-2.744-3.72-5.765-5.881-9.086l-5.206-8,7.317-6.13c17.377-14.56,36.271-24.55,56.161-29.691l1.013,3.923c-19.3,4.988-37.66,14.7-54.571,28.873L28.683,167.9l3.248,4.992c2.163,3.325,4.117,6.353,5.889,9.1l-1.588,1.274,1.7-1.1c13.165,20.4,17.6,27.271,26.386,27.271,3.117,0,5.96-1.059,9.267-2.649l1.758,3.649C71.535,212.263,68.2,213.482,64.32,213.482Z" transform="translate(-23.331 -131.275)" fill="#f9f9f9"/><g transform="translate(163.883 62.562)"><path d="M107.363,234.271l-3.1-2.6c14.461-17.274,22.107-36.058,22.107-54.322a67.034,67.034,0,0,0-1.553-14.313l3.955-.867a71.063,71.063,0,0,1,1.648,15.18C130.417,196.577,122.444,216.258,107.363,234.271Z" transform="translate(-104.259 -162.169)" fill="#f9f9f9"/></g></g><g transform="translate(45.12 230.006)" style="mix-blend-mode:multiply;isolation:isolate"><path d="M87.383,309.552h-.19c-20.664,0-41.58-13.981-41.58-40.7a43.863,43.863,0,0,1,2.155-13.87l3.844,1.278a39.8,39.8,0,0,0-1.948,12.592c0,24.064,18.882,36.654,37.53,36.654Zm37.249-21.62-3.611-1.833a37.759,37.759,0,0,0,3.89-17.251c0-8.315-2.213-15.589-6.581-21.617l3.279-2.375c4.88,6.733,7.353,14.807,7.353,23.993A41.752,41.752,0,0,1,124.632,287.932Z" transform="translate(-45.612 -244.855)" fill="#f9f9f9"/></g></g><g transform="translate(212.4 123.293)" style="isolation:isolate"><g transform="translate(11.557 8.71)" style="mix-blend-mode:multiply;isolation:isolate"><path d="M158.251,222.4h-1.768l-.241-1.75c-.47-3.451-.921-6.46-1.32-9.113-1.859-12.381-2.631-17.507,1.262-23.62,3.921-6.158,9.305-10,14.514-13.708,5.607-4,10.9-7.766,14.653-14.293,3.52-6.114,3.358-12.845-.419-17.567-4.554-5.694-13.163-7.266-23.029-4.214a75.267,75.267,0,0,0-12.819,5.324c-9.184,4.67-10.263,3-20.579-12.985-1.069-1.659-2.25-3.489-3.562-5.5l-.978-1.5,1.375-1.152c21.591-18.092,48.073-23.671,70.82-14.925,16.723,6.428,27.99,19.42,30.141,34.752,2.438,17.4-7.2,35.252-27.138,50.276-12.434,9.376-11.919,15.423-11.545,19.839.188,2.213.383,4.5-1.32,6.357C183.635,221.52,177.08,222.4,158.251,222.4Zm13.078-89.846c7.015,0,12.948,2.491,16.765,7.266,4.838,6.051,5.134,14.528.77,22.116-4.2,7.292-10.105,11.5-15.818,15.573-5.115,3.645-9.951,7.09-13.444,12.582-3.08,4.836-2.426,9.2-.676,20.846.334,2.209.7,4.664,1.089,7.412,10.708-.032,21.4-.4,23.3-2.473.478-.52.419-1.48.267-3.275-.4-4.747-1.079-12.693,13.143-23.416,18.711-14.1,27.79-30.6,25.564-46.481-1.942-13.851-12.254-25.641-27.583-31.532-20.878-8.029-45.2-3.119-65.381,13.112q1.391,2.145,2.584,4c4.886,7.574,7.58,11.745,9.485,13.049,1.156.79,2.011.474,5.854-1.48a78.922,78.922,0,0,1,13.454-5.583A36.118,36.118,0,0,1,171.329,132.557Z" transform="translate(-123.965 -103.336)" fill="#f9f9f9"/></g><g transform="translate(36.953 137.836)" style="mix-blend-mode:multiply;isolation:isolate"><path d="M156.833,206.661c-10.1,0-20.327-6.8-20.327-19.807,0-12.968,10.227-19.754,20.327-19.754,10.158,0,20.441,6.786,20.441,19.754C177.274,199.857,166.991,206.661,156.833,206.661Zm0-35.511c-7.839,0-16.277,4.913-16.277,15.7,0,10.826,8.438,15.757,16.277,15.757,7.894,0,16.391-4.931,16.391-15.757C173.224,176.063,164.727,171.15,156.833,171.15Z" transform="translate(-136.506 -167.1)" fill="#f9f9f9"/></g><g style="mix-blend-mode:multiply;isolation:isolate"><g transform="translate(32.264 71.082)"><path d="M147.77,199.578h-9.4l-1.276-9.311c-.458-3.347-.9-6.272-1.282-8.858-1.966-13.07-3.139-20.878,2.509-29.754,4.834-7.6,11.2-12.132,16.814-16.134l1.934-1.385,2.369,3.285-1.948,1.4c-5.32,3.791-11.342,8.082-15.751,15.012-4.836,7.6-3.868,14.032-1.942,26.846.409,2.736.85,5.678,1.31,9.044l.794,5.81h5.867c18.782,0,27.31-.737,31.506-5.3,3.1-3.374,2.762-7.321,2.541-9.933-.358-4.224.079-8.282,9.088-15.232l2.473,3.208c-7.993,6.166-7.756,8.969-7.527,11.678.249,2.914.711,8.335-3.592,13.019C177.1,198.579,168.737,199.578,147.77,199.578Z" transform="translate(-134.19 -134.136)" fill="#f9f9f9"/></g><g transform="translate(64.662 48.922)"><path d="M155.885,133.719l-3.9-1.073a7.657,7.657,0,0,0,.286-2.009,5.144,5.144,0,0,0-.66-2.61,4.949,4.949,0,0,0-1.418-1.541l2.357-3.293a9,9,0,0,1,2.566,2.8,9.147,9.147,0,0,1,1.2,4.641A11.569,11.569,0,0,1,155.885,133.719Z" transform="translate(-150.189 -123.193)" fill="#f9f9f9"/></g><path d="M148.385,158.944c-8.914,0-12.819-6.051-21.374-19.311l-8.752-13.481,7.314-6.13c17.881-14.979,38.7-22.276,59.573-20.8l-.286,4.04c-19.835-1.393-39.618,5.565-56.685,19.866l-4.566,3.825,6.8,10.484c8.2,12.705,11.265,17.458,17.972,17.458,3.1,0,5.684-1.314,8.679-2.837a70.23,70.23,0,0,1,12.077-5.024,29.95,29.95,0,0,1,5.773-1.213l.409,4.03a25.736,25.736,0,0,0-4.984,1.053,66.7,66.7,0,0,0-11.442,4.765C155.732,157.28,152.455,158.944,148.385,158.944Z" transform="translate(-118.258 -99.035)" fill="#f9f9f9"/><g transform="translate(112.52 42.421)"><path d="M177.358,155.96l-3.536-1.974a47.943,47.943,0,0,0,6.486-23.485,42.446,42.446,0,0,0-1.1-9.6l3.949-.913a46.751,46.751,0,0,1,1.2,10.518A51.924,51.924,0,0,1,177.358,155.96Z" transform="translate(-173.822 -119.983)" fill="#f9f9f9"/></g></g><g transform="translate(28.209 129.089)" style="mix-blend-mode:multiply;isolation:isolate"><path d="M161.26,219.835c-14.447,0-29.072-9.809-29.072-28.553,0-18.711,14.625-28.5,29.072-28.5,14.149,0,29.187,9.988,29.187,28.5a28.315,28.315,0,0,1-4.026,14.977l-3.457-2.11a24.317,24.317,0,0,0,3.432-12.867c0-15.883-12.952-24.451-25.137-24.451-12.436,0-25.022,8.4-25.022,24.451,0,16.085,12.586,24.5,25.022,24.5Z" transform="translate(-132.188 -162.781)" fill="#f9f9f9"/></g></g><g transform="translate(0 0)" style="isolation:isolate"><g transform="translate(11.124 8.38)" style="mix-blend-mode:multiply;isolation:isolate"><path d="M50.782,152.739H49.014l-.239-1.752c-.435-3.185-.853-5.966-1.221-8.418-1.677-11.162-2.444-16.257,1.187-21.962,3.641-5.723,8.637-9.281,13.467-12.721,5.17-3.686,10.056-7.167,13.511-13.175,3.222-5.6,3.078-11.762-.375-16.081-4.172-5.217-12.073-6.656-21.14-3.848A69.5,69.5,0,0,0,42.372,79.7c-8.625,4.384-9.629,2.825-19.23-12.059-.992-1.537-2.086-3.23-3.3-5.1l-.98-1.5,1.375-1.152C40.258,43.115,64.809,37.941,85.9,46.055c15.522,5.968,25.979,18.029,27.976,32.269,2.264,16.15-6.671,32.717-25.163,46.649C77.284,133.6,77.754,139.143,78.1,143.191c.176,2.082.36,4.232-1.262,6C74.339,151.911,68.252,152.739,50.782,152.739Zm12.1-83.416c6.533,0,12.065,2.325,15.625,6.778,4.518,5.65,4.8,13.554.725,20.629-3.9,6.776-9.376,10.678-14.676,14.453-4.72,3.364-9.18,6.543-12.4,11.6-2.817,4.427-2.213,8.447-.6,19.187.3,2.007.634,4.232.984,6.719,9.83-.032,19.6-.375,21.314-2.238.4-.433.342-1.343.207-2.914-.375-4.423-1.006-11.826,12.215-21.8,17.266-13.007,25.641-28.225,23.592-42.854-1.79-12.758-11.294-23.618-25.421-29.049-19.226-7.393-41.619-2.89-60.223,12.021q1.245,1.92,2.317,3.584c4.51,6.988,6.993,10.838,8.732,12.027.946.65,1.594.482,5.257-1.381a73.413,73.413,0,0,1,12.474-5.174A33.528,33.528,0,0,1,62.882,69.323Z" transform="translate(-18.865 -42.289)" fill="#f9f9f9"/></g><g style="mix-blend-mode:multiply;isolation:isolate"><g transform="translate(29.995 63.087)"><path d="M41.229,133.466H32.117l-1.233-9.03c-.425-3.1-.834-5.82-1.191-8.218C27.86,104.048,26.764,96.758,32.086,88.4,36.61,81.288,42.54,77.064,47.77,73.338c1.93-1.375,3.75-2.673,5.4-4.034l2.582,3.121c-1.758,1.454-3.639,2.793-5.628,4.21C45.19,80.148,39.6,84.129,35.5,90.571c-4.51,7.084-3.611,13.056-1.823,24.949.377,2.511.786,5.243,1.215,8.368l.755,5.528h5.577c17.43,0,25.35-.689,29.274-4.963,2.918-3.179,2.59-7.023,2.4-9.321-.346-4.076.089-7.722,8.892-14.36q1.643-1.236,3.189-2.5l2.564,3.137q-1.607,1.315-3.315,2.6c-7.715,5.82-7.513,8.23-7.3,10.781.219,2.57.676,7.916-3.447,12.405C68.6,132.518,60.781,133.466,41.229,133.466Z" transform="translate(-28.184 -69.304)" fill="#f9f9f9"/></g><g transform="translate(61.345 48.079)"><path d="M47.806,69.463,43.922,68.31a6.576,6.576,0,0,0,.292-1.877,4.3,4.3,0,0,0-.549-2.179l3.3-2.361c.077.115.148.235.217.356a8.255,8.255,0,0,1,1.081,4.184A10.744,10.744,0,0,1,47.806,69.463Z" transform="translate(-43.665 -61.893)" fill="#f9f9f9"/></g><path d="M41.873,94.527c-8.507,0-12.162-5.666-20.174-18.082l-.233-.36c-.923-1.432-1.932-3-3.048-4.7l-5.046-7.76,7.092-5.944C35.708,44.9,53.191,38.151,71.019,38.151a68.8,68.8,0,0,1,9.781.7l-.577,4.008a64.893,64.893,0,0,0-9.2-.654c-16.865,0-33.448,6.425-47.953,18.58L18.724,64.42l3.088,4.749c1.118,1.713,2.132,3.285,3.058,4.72l.231.36C33.23,86.843,35.842,90.476,41.873,90.476c2.91,0,5.318-1.225,8.108-2.645A64.958,64.958,0,0,1,61.127,83.2a21.938,21.938,0,0,1,10.557-.923l-.8,3.971a18.06,18.06,0,0,0-8.56.82,61.565,61.565,0,0,0-10.51,4.378C48.837,92.959,45.753,94.527,41.873,94.527Z" transform="translate(-13.372 -38.151)" fill="#f9f9f9"/><g transform="translate(105.993 39.576)"><path d="M69.332,89.088,65.713,87.27a43.713,43.713,0,0,0,4.907-19.7,39.749,39.749,0,0,0-1.033-8.963l3.943-.917a43.747,43.747,0,0,1,1.14,9.88A47.705,47.705,0,0,1,69.332,89.088Z" transform="translate(-65.713 -57.694)" fill="#f9f9f9"/></g></g><g transform="translate(26.249 132.495)" style="mix-blend-mode:multiply;isolation:isolate"><path d="M53.707,157.314c-13.6,0-27.373-9.238-27.373-26.891,0-17.624,13.77-26.844,27.373-26.844,13.321,0,27.478,9.408,27.478,26.844a25.837,25.837,0,0,1-10.257,21.2l-2.436-3.236c3.945-2.969,8.643-8.5,8.643-17.964,0-14.805-12.071-22.794-23.428-22.794-11.589,0-23.323,7.829-23.323,22.794,0,14.994,11.733,22.841,23.323,22.841Z" transform="translate(-26.334 -103.579)" fill="#f9f9f9"/></g><g transform="translate(34.665 140.914)" style="mix-blend-mode:multiply;isolation:isolate"><path d="M49.447,144.637c-9.421,0-18.957-6.347-18.957-18.475,0-12.1,9.536-18.426,18.957-18.426,9.471,0,19.06,6.328,19.06,18.426C68.506,138.29,58.916,144.637,49.447,144.637Zm0-32.85c-7.179,0-14.906,4.5-14.906,14.376,0,9.911,7.728,14.424,14.906,14.424,7.227,0,15.01-4.514,15.01-14.424a13.642,13.642,0,0,0-4.621-10.753A15.9,15.9,0,0,0,49.447,111.786Z" transform="translate(-30.49 -107.736)" fill="#f9f9f9"/></g></g></g><g transform="translate(542.102 4290.246)" opacity="0.14" style="isolation:isolate"><g transform="translate(71.602 262.054)"><g style="mix-blend-mode:multiply;isolation:isolate"><path d="M88.64,136.955m-1.454,3.779" transform="translate(-87.186 -136.955)" fill="#f9f9f9"/></g></g><g transform="translate(0 0)"><g transform="translate(12.379 4.747)" style="mix-blend-mode:multiply;isolation:isolate"><path d="M114.938,211.6H113.17l-.239-1.752c-.812-5.933-1.59-11.107-2.272-15.672-3.141-20.9-4.441-29.552,1.954-39.6,6.583-10.344,15.72-16.857,24.558-23.152,9.338-6.652,18.991-13.531,25.6-25.022,6.351-11.035,6.027-23.229-.846-31.824-8.214-10.269-23.594-13.157-41.141-7.722A130.917,130.917,0,0,0,98.525,76.1c-14.611,7.43-15.68,5.78-33.48-21.8-1.841-2.851-3.87-6-6.124-9.463l-.98-1.5,1.375-1.152C96.012,11.43,140.962,1.928,179.564,16.77c28.235,10.856,47.255,32.749,50.873,58.565,4.117,29.351-12.245,59.549-46.07,85.034-22.008,16.6-21.048,27.9-20.411,35.38.31,3.651.605,7.1-1.891,9.817C157.869,210.135,146.42,211.6,114.938,211.6ZM137.41,60.112c11.612,0,21.4,4.091,27.678,11.938,7.936,9.923,8.394,23.861,1.195,36.372-7.049,12.258-17.069,19.4-26.761,26.3-8.914,6.351-17.332,12.349-23.493,22.029-5.581,8.771-4.435,16.409-1.367,36.824.62,4.123,1.314,8.746,2.039,13.973,27.393-.055,39.322-1.393,42.38-4.722,1.235-1.343,1.136-3.234.838-6.735-.713-8.366-1.788-21.012,22.008-38.956,32.6-24.56,48.4-53.411,44.5-81.237C223.013,51.56,204.952,30.87,178.11,20.551,141.381,6.432,98.588,15.257,63.3,44.139c1.869,2.878,3.576,5.526,5.15,7.963,8.5,13.173,13.183,20.431,16.7,22.837,2.732,1.871,4.951.9,11.537-2.448a134.4,134.4,0,0,1,22.9-9.5A60.555,60.555,0,0,1,137.41,60.112Z" transform="translate(-57.941 -9.893)" fill="#f9f9f9"/></g><g transform="translate(55.557 226.648)" style="mix-blend-mode:multiply;isolation:isolate"><path d="M112.737,184.546c-16.121,0-33.474-10.2-33.474-32.583,0-22.324,17.353-32.492,33.476-32.492,16.733,0,33.671,11.162,33.671,32.492C146.41,173.354,129.472,184.546,112.737,184.546Zm0-61.025c-14.173,0-29.426,8.9-29.426,28.442,0,19.6,15.253,28.533,29.424,28.533,14.269,0,29.622-8.928,29.622-28.533C142.36,132.421,127.006,123.521,112.739,123.521Z" transform="translate(-79.263 -119.471)" fill="#f9f9f9"/></g><g style="mix-blend-mode:multiply;isolation:isolate"><g transform="translate(53.126 143.467)"><path d="M94.313,150.75H84.372L83.025,140.9c-.8-5.887-1.575-11.018-2.258-15.546-3.3-21.982-4.959-33.017,3.317-46.021.2-.314.4-.626.605-.936l3.382,2.23L87.5,81.5c-7.466,11.731-5.883,22.263-2.73,43.247.682,4.542,1.458,9.7,2.264,15.6l.869,6.349h6.405c34.069,0,45.519-1.74,51.043-7.754a12.7,12.7,0,0,0,3.2-6.421l3.979.747a16.641,16.641,0,0,1-4.2,8.414C141.8,148.8,130.191,150.75,94.313,150.75Z" transform="translate(-78.062 -78.395)" fill="#f9f9f9"/></g><g transform="translate(87.466 64.325)"><path d="M123.861,62.854l-4.024-.476a19.109,19.109,0,0,0,.134-2.205,15.845,15.845,0,0,0-2.1-8.044c-3.71-6.407-12.065-9.625-22.44-8.566l-.411-4.028c12.019-1.235,21.828,2.74,26.354,10.565a19.841,19.841,0,0,1,2.647,10.073A22.8,22.8,0,0,1,123.861,62.854Z" transform="translate(-95.02 -39.313)" fill="#f9f9f9"/></g><path d="M94.194,91.712c-11.44,0-16.7-8.149-30.748-29.926-1.839-2.847-3.864-5.984-6.11-9.441l-5.508-8.463L59.564,37.4C76.746,23,95.407,12.962,115.028,7.549l1.075,3.9C97.045,16.71,78.9,26.485,62.168,40.5l-4.988,4.18,3.55,5.456c2.25,3.461,4.279,6.6,6.116,9.453,13.552,21,18.116,28.071,27.348,28.071a18.7,18.7,0,0,0,7.474-1.754l1.584,3.728A22.487,22.487,0,0,1,94.194,91.712Z" transform="translate(-51.828 -7.549)" fill="#f9f9f9"/><g transform="translate(167.63 63.564)"><path d="M137.7,113.636l-3.09-2.62c15.21-17.916,23.25-37.429,23.25-56.43a68.94,68.94,0,0,0-1.61-14.777l3.955-.871a72.876,72.876,0,0,1,1.705,15.648C161.906,74.559,153.534,94.979,137.7,113.636Z" transform="translate(-134.606 -38.938)" fill="#f9f9f9"/></g></g><g transform="translate(46.187 234.412)" style="mix-blend-mode:multiply;isolation:isolate"><path d="M117.681,189.984h-.2c-21.291,0-42.844-14.41-42.844-41.951a45.132,45.132,0,0,1,2.219-14.293l3.842,1.28a41.1,41.1,0,0,0-2.011,13.013c0,24.882,19.515,37.9,38.794,37.9ZM156.061,167.7l-3.613-1.833a39.031,39.031,0,0,0,4.022-17.833c0-8.594-2.288-16.115-6.806-22.353l3.281-2.375c5.028,6.942,7.578,15.261,7.576,24.728A43.054,43.054,0,0,1,156.061,167.7Z" transform="translate(-74.636 -123.305)" fill="#f9f9f9"/></g></g></g></g></svg>