<svg xmlns="http://www.w3.org/2000/svg" width="79.245" height="79.245" viewBox="0 0 79.245 79.245"><path d="M81.826,49.428a5.99,5.99,0,0,0-3.362-3.3,6.113,6.113,0,0,0-4.646,0l-17.4,6a6.271,6.271,0,0,0,.1-1.024,5.771,5.771,0,0,0-5.849-5.69h-4.51a25.253,25.253,0,0,1-11.507-2.779,27.938,27.938,0,0,0-12.778-3.084H15.04V34.83a1.349,1.349,0,0,0-1.367-1.33H4.367A1.349,1.349,0,0,0,3,34.83V67.4a1.349,1.349,0,0,0,1.367,1.33h9.307A1.349,1.349,0,0,0,15.04,67.4V64.411a26.585,26.585,0,0,1,7.2,1.33l7.024,2.42a34.613,34.613,0,0,0,11.206,1.861h1.367a34.622,34.622,0,0,0,11.876-2.659L78.9,56.9A5.889,5.889,0,0,0,81.826,49.428ZM12.307,66.073H5.733V36.159h6.573Zm65.488-11.54L52.69,64.97a31.358,31.358,0,0,1-10.933,2.406,31.919,31.919,0,0,1-11.616-1.688l-7-2.406a29.081,29.081,0,0,0-8.1-1.529V42.208h6.833a24.988,24.988,0,0,1,11.493,2.779,28.1,28.1,0,0,0,12.791,3.084h4.51A3.075,3.075,0,0,1,53.783,51.1v.013A2.917,2.917,0,0,1,52.7,53.39l-2.3.784H35.5a1.33,1.33,0,1,0,0,2.659H50.667l24.162-8.19a3.355,3.355,0,0,1,2.61,0,3.29,3.29,0,0,1,1.845,1.808,3.242,3.242,0,0,1-1.49,4.095Z" transform="translate(-3 9.223)" fill="#f9f9f9"/><path d="M28.717,50.7H62.992a4.428,4.428,0,0,0,4.427-4.414V39.495A3.511,3.511,0,0,0,70.3,36.051V32.435a3.5,3.5,0,0,0-2.885-3.443V23.567a4.439,4.439,0,0,0-4.427-4.427h-.931l1.728-1.782a1.329,1.329,0,0,0,0-1.875L53.433,5.074a1.329,1.329,0,0,0-1.875,0L49.883,6.749l-7.233-3.6a1.32,1.32,0,0,0-1.782.585L33.211,19.14H28.717a4.439,4.439,0,0,0-4.427,4.427V46.289A4.428,4.428,0,0,0,28.717,50.7ZM67.646,36.078a.852.852,0,0,1-.851.851H59.283A.279.279,0,0,1,59,36.65V31.863a.279.279,0,0,1,.279-.279h7.512a.852.852,0,0,1,.851.851ZM52.5,7.892l8.522,8.522L58.3,19.14H41.188ZM42.651,6.111,47.9,8.77,37.479,19.18h-1.33Zm-15.7,17.457A1.767,1.767,0,0,1,28.717,21.8H62.992a1.781,1.781,0,0,1,1.768,1.768v5.318H59.283a2.937,2.937,0,0,0-2.938,2.938h0v4.76a2.937,2.937,0,0,0,2.938,2.938h5.478v6.727A1.767,1.767,0,0,1,62.992,48H28.717a1.755,1.755,0,0,1-1.768-1.742v-22.7Z" transform="translate(6.166 -3.002)" fill="#f9f9f9"/></svg>