<svg xmlns="http://www.w3.org/2000/svg" width="105.646" height="61.307" viewBox="0 0 105.646 61.307"><path d="M112.526,73.887,102.265,38.933a2.107,2.107,0,0,0-2.528-1.454l-12.81,3.245c-1.664.464-1.833,2.107-1.243,3.54-10.134.147-18.6-11.082-29.012-7.88l-6.805,1.833-16.392.7c.632-1.37.442-3.034-1.2-3.5L19.631,31.938a2.105,2.105,0,0,0-2.549,1.391L7.053,65.164a2.1,2.1,0,0,0,.7,2.294,2.076,2.076,0,0,0,.754.381l12.642,3.455a2.105,2.105,0,0,0,2.423-1.222c4.7,6.321,9.882,12.831,16.708,17.066L47.527,91.9A7.71,7.71,0,0,0,59.052,88a7.08,7.08,0,0,0,10.893-2.95A7.437,7.437,0,0,0,80.8,80.608a7.314,7.314,0,0,0,9.755-4l4.34-.716.7,2.423a2.108,2.108,0,0,0,2.549,1.433L110.924,76.5a2.1,2.1,0,0,0,1.363-.961,2.116,2.116,0,0,0,.238-1.652Zm-100.9-9.544L20.39,36.531l8.681,2.36L20.284,66.7ZM86.147,76.057a3.311,3.311,0,0,1-4.34.316l-8.217-6.51a2.108,2.108,0,1,0-2.613,3.308l4.8,3.792c3.245,2.844-1.391,6.7-4.214,4.214L63.624,74.16a2.113,2.113,0,1,0-2.781,3.181l4.53,3.982c2.549,2.423-1.517,5.457-3.792,3.455L53.3,77.826a2.116,2.116,0,0,0-1.981-.358,2,2,0,0,0-.706.381,1.973,1.973,0,0,0-.5.63,2.109,2.109,0,0,0,.485,2.57l3.792,3.2c2.676,2.865-1.728,6.321-4.509,4.214L42.639,83.7C35.559,79.491,30,71.737,25.193,65.311l6.974-22.123,13.8-.506-6.658,9.27C34.274,59.307,44.83,66.7,50.75,60.676L53.827,57.6a9.545,9.545,0,0,1,12.41-.674L85.81,72.433a2.424,2.424,0,0,1,.337,3.624Zm4.53-3.708a6.64,6.64,0,0,0-2.233-3.2L68.87,53.618a13.824,13.824,0,0,0-18.014.99l-3.1,3.1c-2.212,2.423-7.1-.211-5.036-3.308l8.744-12.241,6.321-1.707c5.731-1.875,11.82,2.992,16.855,5.162A27.375,27.375,0,0,0,87.032,48.54l6.826,23.176ZM99.1,75.193l-9.06-30.909,8.7-2.107,9.081,30.909Z" transform="translate(-6.952 -31.866)" fill="#f9f9f9"/></svg>