<svg xmlns="http://www.w3.org/2000/svg" width="18.917" height="18.917" viewBox="0 0 18.917 18.917">
  <path id="Icon-Instagram" d="M11.589,6A5.6,5.6,0,0,0,6,11.589v7.739a5.6,5.6,0,0,0,5.589,5.589h7.739a5.6,5.6,0,0,0,5.589-5.589V11.589A5.6,5.6,0,0,0,19.328,6Zm9.029,3.44a.86.86,0,1,1-.86.86A.862.862,0,0,1,20.618,9.44Zm-5.159,1.29a4.729,4.729,0,1,1-4.729,4.729A4.732,4.732,0,0,1,15.459,10.729Zm0,.86a3.869,3.869,0,1,0,3.869,3.869A3.875,3.875,0,0,0,15.459,11.589Z" transform="translate(-6 -6)" fill="#707070"/>
</svg>
