<svg xmlns="http://www.w3.org/2000/svg" width="24.275" height="20.121" viewBox="0 0 24.275 20.121">
  <path id="Icon-tweeter" d="M24.158,13.615a9.807,9.807,0,0,1-2.862.8,5.077,5.077,0,0,0,2.191-2.81,9.881,9.881,0,0,1-3.163,1.231,4.924,4.924,0,0,0-3.634-1.6,5.031,5.031,0,0,0-4.981,5.079,5.185,5.185,0,0,0,.131,1.158A14.051,14.051,0,0,1,1.572,12.162a5.158,5.158,0,0,0,1.542,6.785A4.9,4.9,0,0,1,.857,18.31v.064a5.063,5.063,0,0,0,3.994,4.982,4.9,4.9,0,0,1-1.311.177,4.707,4.707,0,0,1-.938-.093,5.005,5.005,0,0,0,4.652,3.529,9.859,9.859,0,0,1-6.185,2.173,9.615,9.615,0,0,1-1.186-.071,13.871,13.871,0,0,0,7.634,2.283c9.16,0,14.17-7.74,14.17-14.451,0-.22-.006-.442-.013-.658A10.236,10.236,0,0,0,24.158,13.615Z" transform="translate(0.117 -11.234)" fill="#707070"/>
</svg>
