<svg xmlns="http://www.w3.org/2000/svg" width="17.123" height="17.123" viewBox="0 0 17.123 17.123">
  <path id="Icon-whatsaap" d="M10.561,2A8.561,8.561,0,0,0,3.1,14.764L2.014,18.65a.372.372,0,0,0,.358.473.383.383,0,0,0,.089-.011l4.056-1A8.561,8.561,0,1,0,10.561,2Zm4.307,11.582a2.263,2.263,0,0,1-1.484,1.032A3.055,3.055,0,0,1,12,14.528a12.881,12.881,0,0,1-1.253-.457,9.755,9.755,0,0,1-3.755-3.277,4.194,4.194,0,0,1-.9-2.245,2.421,2.421,0,0,1,.769-1.811.812.812,0,0,1,.586-.272c.147,0,.293,0,.421.008s.316-.051.495.373.623,1.5.677,1.612a.4.4,0,0,1,.019.38,1.463,1.463,0,0,1-.22.362c-.11.127-.231.283-.33.38s-.224.226-.1.443a6.54,6.54,0,0,0,1.223,1.5,6.026,6.026,0,0,0,1.767,1.077c.22.109.348.09.476-.054s.549-.634.7-.851.293-.181.495-.109,1.282.6,1.5.706.366.163.421.253A1.789,1.789,0,0,1,14.868,13.582Z" transform="translate(-2 -2)" fill="#707070"/>
</svg>
