<svg xmlns="http://www.w3.org/2000/svg" width="65" height="80.395" viewBox="0 0 65 80.395"><path d="M44.5,6A20.506,20.506,0,0,0,23.974,26.526v8.553H17.132A5.159,5.159,0,0,0,12,40.211V81.263a5.159,5.159,0,0,0,5.132,5.132H71.868A5.159,5.159,0,0,0,77,81.263V40.211a5.159,5.159,0,0,0-5.132-5.132H65.026V26.526A20.506,20.506,0,0,0,44.5,6Zm0,3.421A17.011,17.011,0,0,1,61.605,26.526v8.553H27.395V26.526A17.011,17.011,0,0,1,44.5,9.421ZM17.132,38.5H71.868a1.706,1.706,0,0,1,1.711,1.711V81.263a1.706,1.706,0,0,1-1.711,1.711H17.132a1.706,1.706,0,0,1-1.711-1.711V40.211A1.706,1.706,0,0,1,17.132,38.5ZM44.5,52.184a5.042,5.042,0,0,0-5.132,5.132,4.852,4.852,0,0,0,1.711,3.742v4.811a3.421,3.421,0,0,0,6.842,0V61.058a4.852,4.852,0,0,0,1.711-3.742A5.042,5.042,0,0,0,44.5,52.184Z" transform="translate(-12 -6)" fill="#f9f9f9"/></svg>