<svg xmlns="http://www.w3.org/2000/svg" width="57.97" height="56.613" viewBox="0 0 57.97 56.613">
  <g id="Group_1172" data-name="Group 1172" transform="translate(-471.47 46.159) rotate(-30)">
    <g id="Group_1082" data-name="Group 1082" transform="translate(420.436 214.724)">
      <path id="Path_15955" data-name="Path 15955" d="M43.5,19.265,32.264,39.018a2.133,2.133,0,0,1-.961.879,2.157,2.157,0,0,1-1.125.174,2.089,2.089,0,0,1-.8-.261L1.057,23.7a2.056,2.056,0,0,1-.631-.551,2.128,2.128,0,0,1-.414-1.056,2.1,2.1,0,0,1,.265-1.273L11.511,1.068A2.115,2.115,0,0,1,14.392.276L42.715,16.384a2.105,2.105,0,0,1,.8,2.881Z" transform="translate(0 0)" fill="#707070"/>
    </g>
    <path id="Path_15956" data-name="Path 15956" d="M3479.63,1633.042l-20.331,4.1-1.1.223-.451.091a2.022,2.022,0,0,1-2.3-1.31l-.152-.435-.374-1.06-6.868-19.569a2.111,2.111,0,0,1,1.048-.334l6.939,19.774.371,1.06.071.207a.925.925,0,0,0,1.051.6l.207-.043,1.1-.222,20.54-4.14A2.125,2.125,0,0,1,3479.63,1633.042Z" transform="translate(-3015.418 -1400.024)" fill="#f0f0f0"/>
    <path id="Path_15957" data-name="Path 15957" d="M3409.738,1711.34l-1.115.128-19.008,2.186a2.146,2.146,0,0,1-.415-1.056l19.061-2.19,1.117-.129Z" transform="translate(-2968.75 -1475.78)" fill="#f0f0f0"/>
    <path id="Path_15958" data-name="Path 15958" d="M3504.272,1736.469a2.146,2.146,0,0,1-1.123.174l-7.839-17.455-.459-1.035,1.1-.221.46,1.035Z" transform="translate(-3052.532 -1481.847)" fill="#f0f0f0"/>
  </g>
</svg>
