<svg xmlns="http://www.w3.org/2000/svg" width="32.731" height="32.731" viewBox="0 0 32.731 32.731">
  <path id="Path_16023" data-name="Path 16023" d="M182.539-59.938a2.572,2.572,0,0,1,2.033,1.21c.519.809,1.323,2.065,2.371,3.7a4.914,4.914,0,0,1,.169,4.982l-1.918,2.729a2.612,2.612,0,0,0-.274,2.516,16.236,16.236,0,0,0,3.461,5.156,16.236,16.236,0,0,0,5.156,3.461,2.612,2.612,0,0,0,2.516-.274l2.729-1.918a4.918,4.918,0,0,1,4.982.169c1.638,1.048,2.894,1.852,3.7,2.371a2.572,2.572,0,0,1,1.21,2.033c.2,4.667-3.414,6.558-4.466,6.558-.728,0-9.48.995-19.352-8.877s-8.877-18.624-8.877-19.352C175.981-56.524,177.872-60.14,182.539-59.938Z" transform="translate(-175.953 59.946)" fill="#707070"/>
</svg>
