<svg xmlns="http://www.w3.org/2000/svg" width="128" height="128" viewBox="0 0 128 128">
  <g id="Group_1286" data-name="Group 1286" transform="translate(-1063 -1281)">
    <g id="Path_62" data-name="Path 62" transform="translate(1063 1281)" fill="rgba(255,255,255,0)">
      <path d="M 64 127 C 55.4946174621582 127 47.24418258666992 125.3344345092773 39.47786712646484 122.0495529174805 C 35.74506759643555 120.4707183837891 32.14471817016602 118.5165023803711 28.77680015563965 116.2411804199219 C 25.44063377380371 113.9872970581055 22.30340003967285 111.3988494873047 19.45228385925293 108.5477142333984 C 16.60115051269531 105.6966018676758 14.01270008087158 102.5593643188477 11.75881671905518 99.22319793701172 C 9.483499526977539 95.85528564453125 7.52928352355957 92.25493621826172 5.95044994354248 88.52213287353516 C 2.665566682815552 80.75581359863281 1 72.50538635253906 1 64 C 1 55.4946174621582 2.665566682815552 47.24418258666992 5.95044994354248 39.47786712646484 C 7.52928352355957 35.74506759643555 9.483499526977539 32.14471817016602 11.75881671905518 28.77680015563965 C 14.01270008087158 25.44063377380371 16.60115051269531 22.30340003967285 19.45228385925293 19.45228385925293 C 22.30340003967285 16.60115051269531 25.44063377380371 14.01270008087158 28.77680015563965 11.75881671905518 C 32.14471817016602 9.483499526977539 35.74506759643555 7.52928352355957 39.47786712646484 5.95044994354248 C 47.24418258666992 2.665566682815552 55.4946174621582 1 64 1 C 72.50538635253906 1 80.75581359863281 2.665566682815552 88.52213287353516 5.95044994354248 C 92.25493621826172 7.52928352355957 95.85528564453125 9.483499526977539 99.22319793701172 11.75881671905518 C 102.5593643188477 14.01270008087158 105.6966018676758 16.60115051269531 108.5477142333984 19.45228385925293 C 111.3988494873047 22.30340003967285 113.9872970581055 25.44063377380371 116.2411804199219 28.77680015563965 C 118.5165023803711 32.14471817016602 120.4707183837891 35.74506759643555 122.0495529174805 39.47786712646484 C 125.3344345092773 47.24418258666992 127 55.4946174621582 127 64 C 127 72.50538635253906 125.3344345092773 80.75581359863281 122.0495529174805 88.52213287353516 C 120.4707183837891 92.25493621826172 118.5165023803711 95.85528564453125 116.2411804199219 99.22319793701172 C 113.9872970581055 102.5593643188477 111.3988494873047 105.6966018676758 108.5477142333984 108.5477142333984 C 105.6966018676758 111.3988494873047 102.5593643188477 113.9872970581055 99.22319793701172 116.2411804199219 C 95.85528564453125 118.5165023803711 92.25493621826172 120.4707183837891 88.52213287353516 122.0495529174805 C 80.75581359863281 125.3344345092773 72.50538635253906 127 64 127 Z" stroke="none"/>
      <path d="M 64 2 C 55.62918090820312 2 47.50980377197266 3.638999938964844 39.86741638183594 6.871452331542969 C 36.194091796875 8.425125122070312 32.65101623535156 10.34827423095703 29.33660125732422 12.58743286132812 C 26.05316162109375 14.80569458007812 22.96550750732422 17.35325622558594 20.15937805175781 20.15937805175781 C 17.35325622558594 22.96550750732422 14.80569458007812 26.05316162109375 12.58743286132812 29.33660125732422 C 10.34827423095703 32.65101623535156 8.425125122070312 36.194091796875 6.871452331542969 39.86741638183594 C 3.638999938964844 47.50980377197266 2 55.62918090820312 2 64 C 2 72.37081909179688 3.638999938964844 80.49020385742188 6.871452331542969 88.13258361816406 C 8.425125122070312 91.805908203125 10.34827423095703 95.34898376464844 12.58743286132812 98.66339874267578 C 14.80569458007812 101.9468383789062 17.35325622558594 105.0344924926758 20.15937805175781 107.8406219482422 C 22.96550750732422 110.6467437744141 26.05316162109375 113.1943054199219 29.33660125732422 115.4125671386719 C 32.65101623535156 117.651725769043 36.194091796875 119.5748748779297 39.86741638183594 121.128547668457 C 47.50980377197266 124.3610000610352 55.62918090820312 126 64 126 C 72.37081909179688 126 80.49020385742188 124.3610000610352 88.13258361816406 121.128547668457 C 91.805908203125 119.5748748779297 95.34898376464844 117.651725769043 98.66339874267578 115.4125671386719 C 101.9468383789062 113.1943054199219 105.0344924926758 110.6467437744141 107.8406219482422 107.8406219482422 C 110.6467437744141 105.0344924926758 113.1943054199219 101.9468383789062 115.4125671386719 98.66339874267578 C 117.651725769043 95.34898376464844 119.5748748779297 91.805908203125 121.128547668457 88.13258361816406 C 124.3610000610352 80.49020385742188 126 72.37081909179688 126 64 C 126 55.62918090820312 124.3610000610352 47.50980377197266 121.128547668457 39.86741638183594 C 119.5748748779297 36.194091796875 117.651725769043 32.65101623535156 115.4125671386719 29.33660125732422 C 113.1943054199219 26.05316162109375 110.6467437744141 22.96550750732422 107.8406219482422 20.15937805175781 C 105.0344924926758 17.35325622558594 101.9468383789062 14.80569458007812 98.66339874267578 12.58743286132812 C 95.34898376464844 10.34827423095703 91.805908203125 8.425125122070312 88.13258361816406 6.871452331542969 C 80.49020385742188 3.638999938964844 72.37081909179688 2 64 2 M 64 0 C 99.34622192382812 0 128 28.65377807617188 128 64 C 128 99.34622192382812 99.34622192382812 128 64 128 C 28.65377807617188 128 0 99.34622192382812 0 64 C 0 28.65377807617188 28.65377807617188 0 64 0 Z" stroke="none" fill="#02074e"/>
    </g>
    <g id="Layer_2" data-name="Layer 2" transform="translate(1096.347 1316.812)">
      <g id="_1" data-name=" 1" transform="translate(-0.001 0)">
        <path id="Path_12776" data-name="Path 12776" d="M36.943,60.174H23.221a.956.956,0,0,1-.956-.956V52.91a27.354,27.354,0,0,1-2.794-1.16l-4.427,4.459a.956.956,0,0,1-1.354,0L4.019,46.538a.956.956,0,0,1,0-1.354l4.459-4.459a23.232,23.232,0,0,1-1.16-2.794H.956A.956.956,0,0,1,0,36.943V23.221a.956.956,0,0,1,.956-.956H7.264a23.232,23.232,0,0,1,1.161-2.794L3.965,15.044a.956.956,0,0,1,0-1.354l9.671-9.671a.956.956,0,0,1,1.354,0l4.459,4.459a23.233,23.233,0,0,1,2.794-1.161V.956A.956.956,0,0,1,23.221,0H36.943A.956.956,0,0,1,37.9.956V7.264a23.232,23.232,0,0,1,2.794,1.161l4.438-4.459a.956.956,0,0,1,1.354,0l9.671,9.671a1.01,1.01,0,0,1,.279.677.967.967,0,0,1-.279.677L51.7,19.449a27.357,27.357,0,0,1,1.16,2.794h6.351a.956.956,0,0,1,.956.956V36.943a.956.956,0,0,1-.956.956h-6.3a27.358,27.358,0,0,1-1.16,2.794l4.459,4.438a.956.956,0,0,1,0,1.354l-9.671,9.671a.956.956,0,0,1-1.354,0L40.725,51.7a27.358,27.358,0,0,1-2.794,1.16v6.351a.956.956,0,0,1-.989.967ZM24.177,58.251H36V52.212a.956.956,0,0,1,.677-.913,22.4,22.4,0,0,0,3.772-1.569.946.946,0,0,1,1.075.172l4.3,4.3,8.349-8.349-4.3-4.3a.946.946,0,0,1-.172-1.075,22.4,22.4,0,0,0,1.569-3.772.956.956,0,0,1,.913-.677h6.039V24.209H52.212a.956.956,0,0,1-.913-.666,21.684,21.684,0,0,0-1.569-3.772.967.967,0,0,1,.172-1.128l4.3-4.3L45.829,6l-4.3,4.3a.946.946,0,0,1-1.075.172A22.4,22.4,0,0,0,36.685,8.9a.946.946,0,0,1-.677-.913V1.913H24.188V7.952a.946.946,0,0,1-.666.913,21.684,21.684,0,0,0-3.772,1.569.967.967,0,0,1-1.128-.172l-4.3-4.3L6,14.334l4.3,4.3a.967.967,0,0,1,.172,1.128A21.684,21.684,0,0,0,8.9,23.532a.946.946,0,0,1-.913.666H1.913v11.82H7.952a.946.946,0,0,1,.913.677,22.4,22.4,0,0,0,1.569,3.772.946.946,0,0,1-.172,1.075l-4.3,4.3L14.3,54.189l4.3-4.3a.967.967,0,0,1,1.128-.172A21.684,21.684,0,0,0,23.5,51.288a.956.956,0,0,1,.666.913Z" transform="translate(0.001 0)" fill="#02074e"/>
        <path id="Path_12777" data-name="Path 12777" d="M29.4,49.535a20.148,20.148,0,1,1,20.137-20.14A20.148,20.148,0,0,1,29.4,49.535Zm0-38.4A18.267,18.267,0,1,0,47.665,29.4,18.267,18.267,0,0,0,29.4,11.131Z" transform="translate(0.689 0.689)" fill="#02074e"/>
        <path id="Path_12778" data-name="Path 12778" d="M29.062,44.374A15.312,15.312,0,1,1,44.374,29.062,15.312,15.312,0,0,1,29.062,44.374Zm0-28.712a13.4,13.4,0,1,0,13.4,13.4,13.4,13.4,0,0,0-13.4-13.4Z" transform="translate(1.025 1.025)" fill="#02074e"/>
        <path id="Path_12779" data-name="Path 12779" d="M32.187,38.043H24.665a2.235,2.235,0,0,1-2.235-2.235V33.659a.967.967,0,0,1,1.923,0v2.149a.322.322,0,0,0,.312.322h7.522a.333.333,0,0,0,.322-.322V29.919a.322.322,0,0,0-.322-.312H24.665a2.235,2.235,0,0,1-2.235-2.235V21.484a2.235,2.235,0,0,1,2.235-2.224h7.522a2.235,2.235,0,0,1,2.235,2.224v2.149a.956.956,0,0,1-1.913,0V21.484a.322.322,0,0,0-.322-.312H24.665a.312.312,0,0,0-.312.312v5.888a.322.322,0,0,0,.312.322h7.522a2.235,2.235,0,0,1,2.235,2.224v5.888a2.235,2.235,0,0,1-2.235,2.235Z" transform="translate(1.672 1.436)" fill="#02074e"/>
        <path id="Path_12780" data-name="Path 12780" d="M28.066,40.146a.946.946,0,0,1-.956-.956V18.376a.956.956,0,1,1,1.913,0V39.19A.956.956,0,0,1,28.066,40.146Z" transform="translate(2.021 1.299)" fill="#02074e"/>
      </g>
    </g>
  </g>
</svg>
