<svg xmlns="http://www.w3.org/2000/svg" width="128" height="128" viewBox="0 0 128 128">
  <g id="Group_1288" data-name="Group 1288" transform="translate(-391 -1281)">
    <g id="Path_16198" data-name="Path 16198" transform="translate(391 1281)" fill="rgba(255,255,255,0)">
      <path d="M 64 127 C 55.4946174621582 127 47.24418258666992 125.3344345092773 39.47786712646484 122.0495529174805 C 35.74506759643555 120.4707183837891 32.14471817016602 118.5165023803711 28.77680015563965 116.2411804199219 C 25.44063377380371 113.9872970581055 22.30340003967285 111.3988494873047 19.45228385925293 108.5477142333984 C 16.60115051269531 105.6966018676758 14.01270008087158 102.5593643188477 11.75881671905518 99.22319793701172 C 9.483499526977539 95.85528564453125 7.52928352355957 92.25493621826172 5.95044994354248 88.52213287353516 C 2.665566682815552 80.75581359863281 1 72.50538635253906 1 64 C 1 55.4946174621582 2.665566682815552 47.24418258666992 5.95044994354248 39.47786712646484 C 7.52928352355957 35.74506759643555 9.483499526977539 32.14471817016602 11.75881671905518 28.77680015563965 C 14.01270008087158 25.44063377380371 16.60115051269531 22.30340003967285 19.45228385925293 19.45228385925293 C 22.30340003967285 16.60115051269531 25.44063377380371 14.01270008087158 28.77680015563965 11.75881671905518 C 32.14471817016602 9.483499526977539 35.74506759643555 7.52928352355957 39.47786712646484 5.95044994354248 C 47.24418258666992 2.665566682815552 55.4946174621582 1 64 1 C 72.50538635253906 1 80.75581359863281 2.665566682815552 88.52213287353516 5.95044994354248 C 92.25493621826172 7.52928352355957 95.85528564453125 9.483499526977539 99.22319793701172 11.75881671905518 C 102.5593643188477 14.01270008087158 105.6966018676758 16.60115051269531 108.5477142333984 19.45228385925293 C 111.3988494873047 22.30340003967285 113.9872970581055 25.44063377380371 116.2411804199219 28.77680015563965 C 118.5165023803711 32.14471817016602 120.4707183837891 35.74506759643555 122.0495529174805 39.47786712646484 C 125.3344345092773 47.24418258666992 127 55.4946174621582 127 64 C 127 72.50538635253906 125.3344345092773 80.75581359863281 122.0495529174805 88.52213287353516 C 120.4707183837891 92.25493621826172 118.5165023803711 95.85528564453125 116.2411804199219 99.22319793701172 C 113.9872970581055 102.5593643188477 111.3988494873047 105.6966018676758 108.5477142333984 108.5477142333984 C 105.6966018676758 111.3988494873047 102.5593643188477 113.9872970581055 99.22319793701172 116.2411804199219 C 95.85528564453125 118.5165023803711 92.25493621826172 120.4707183837891 88.52213287353516 122.0495529174805 C 80.75581359863281 125.3344345092773 72.50538635253906 127 64 127 Z" stroke="none"/>
      <path d="M 64 2 C 55.62918090820312 2 47.50980377197266 3.638999938964844 39.86741638183594 6.871452331542969 C 36.194091796875 8.425125122070312 32.65101623535156 10.34827423095703 29.33660125732422 12.58743286132812 C 26.05316162109375 14.80569458007812 22.96550750732422 17.35325622558594 20.15937805175781 20.15937805175781 C 17.35325622558594 22.96550750732422 14.80569458007812 26.05316162109375 12.58743286132812 29.33660125732422 C 10.34827423095703 32.65101623535156 8.425125122070312 36.194091796875 6.871452331542969 39.86741638183594 C 3.638999938964844 47.50980377197266 2 55.62918090820312 2 64 C 2 72.37081909179688 3.638999938964844 80.49020385742188 6.871452331542969 88.13258361816406 C 8.425125122070312 91.805908203125 10.34827423095703 95.34898376464844 12.58743286132812 98.66339874267578 C 14.80569458007812 101.9468383789062 17.35325622558594 105.0344924926758 20.15937805175781 107.8406219482422 C 22.96550750732422 110.6467437744141 26.05316162109375 113.1943054199219 29.33660125732422 115.4125671386719 C 32.65101623535156 117.651725769043 36.194091796875 119.5748748779297 39.86741638183594 121.128547668457 C 47.50980377197266 124.3610000610352 55.62918090820312 126 64 126 C 72.37081909179688 126 80.49020385742188 124.3610000610352 88.13258361816406 121.128547668457 C 91.805908203125 119.5748748779297 95.34898376464844 117.651725769043 98.66339874267578 115.4125671386719 C 101.9468383789062 113.1943054199219 105.0344924926758 110.6467437744141 107.8406219482422 107.8406219482422 C 110.6467437744141 105.0344924926758 113.1943054199219 101.9468383789062 115.4125671386719 98.66339874267578 C 117.651725769043 95.34898376464844 119.5748748779297 91.805908203125 121.128547668457 88.13258361816406 C 124.3610000610352 80.49020385742188 126 72.37081909179688 126 64 C 126 55.62918090820312 124.3610000610352 47.50980377197266 121.128547668457 39.86741638183594 C 119.5748748779297 36.194091796875 117.651725769043 32.65101623535156 115.4125671386719 29.33660125732422 C 113.1943054199219 26.05316162109375 110.6467437744141 22.96550750732422 107.8406219482422 20.15937805175781 C 105.0344924926758 17.35325622558594 101.9468383789062 14.80569458007812 98.66339874267578 12.58743286132812 C 95.34898376464844 10.34827423095703 91.805908203125 8.425125122070312 88.13258361816406 6.871452331542969 C 80.49020385742188 3.638999938964844 72.37081909179688 2 64 2 M 64 0 C 99.34622192382812 0 128 28.65377807617188 128 64 C 128 99.34622192382812 99.34622192382812 128 64 128 C 28.65377807617188 128 0 99.34622192382812 0 64 C 0 28.65377807617188 28.65377807617188 0 64 0 Z" stroke="none" fill="#02074e"/>
    </g>
    <g id="Group_1220" data-name="Group 1220" transform="translate(157.724 -284.739)">
      <g id="Layer_2" data-name="Layer 2" transform="translate(278.011 1628.745)">
        <g id="_1" data-name=" 1">
          <path id="Path_12742" data-name="Path 12742" d="M18.118,15.64C7.956,15.64,0,12.206,0,7.816S7.956,0,18.118,0,36.235,3.434,36.235,7.816,28.279,15.64,18.118,15.64Zm0-14.169c-9.948,0-16.647,3.287-16.647,6.346s6.691,6.338,16.64,6.338,16.64-3.272,16.64-6.338S28.073,1.471,18.118,1.471Z" fill="#02074e"/>
          <path id="Path_12743" data-name="Path 12743" d="M11.823,13.673a.5.5,0,0,1-.147,0C6.69,12.7,3.83,10.953,3.83,8.865c0-2.206,3.14-4.015,8.618-4.949a.746.746,0,1,1,.25,1.471C7.617,6.247,5.345,7.8,5.345,8.872s2.044,2.456,6.618,3.338a.739.739,0,0,1-.14,1.471Z" transform="translate(-1.014 -1.034)" fill="#02074e"/>
          <path id="Path_12744" data-name="Path 12744" d="M34.048,13.663a.739.739,0,0,1-.147-1.471c4.574-.89,6.618-2.368,6.618-3.36s-2.309-2.625-7.353-3.485a.745.745,0,1,1,.243-1.471c5.478.934,8.625,2.743,8.625,4.949,0,2.088-2.868,3.838-7.853,4.809a.478.478,0,0,1-.132.029Z" transform="translate(-8.614 -1.023)" fill="#02074e"/>
          <path id="Path_12745" data-name="Path 12745" d="M18.118,27.549C7.956,27.549,0,24.1,0,19.718V10.365a.735.735,0,0,1,1.471,0c0,3.066,6.691,6.338,16.64,6.338s16.64-3.272,16.64-6.338a.735.735,0,0,1,1.471,0v9.353C36.235,24.1,28.279,27.549,18.118,27.549ZM1.471,13.52v6.2c0,3.059,6.7,6.36,16.647,6.36s16.64-3.279,16.64-6.338V13.52c-2.757,2.772-9.088,4.669-16.64,4.669S4.235,16.292,1.471,13.52Z" transform="translate(0 -2.549)" fill="#02074e"/>
          <path id="Path_12746" data-name="Path 12746" d="M18.118,40.364C7.956,40.364,0,36.931,0,32.548V23.2a.735.735,0,1,1,1.471,0c0,3.059,6.691,6.338,16.64,6.338S34.75,26.254,34.75,23.2a.735.735,0,0,1,1.471,0v9.353C36.235,36.931,28.279,40.364,18.118,40.364ZM1.471,26.342v6.206c0,3.059,6.691,6.338,16.64,6.338s16.64-3.279,16.64-6.338V26.342c-2.757,2.772-9.088,4.669-16.64,4.669S4.235,29.114,1.471,26.342Z" transform="translate(0 -5.945)" fill="#02074e"/>
          <path id="Path_12748" data-name="Path 12748" d="M19.493,27.914c-5.971,0-10.676-1.1-14.382-3.353A.735.735,0,0,1,5.846,23.3c3.515,2.11,7.926,3.14,13.647,3.14a.735.735,0,0,1,0,1.471Z" transform="translate(-1.273 -6.15)" fill="#02074e"/>
          <path id="Path_12749" data-name="Path 12749" d="M19.493,40.014c-5.971,0-10.676-1.1-14.382-3.353A.735.735,0,0,1,5.846,35.4c3.515,2.11,7.926,3.14,13.647,3.14a.735.735,0,1,1,0,1.471Z" transform="translate(-1.273 -9.352)" fill="#02074e"/>
          <path id="Path_12751" data-name="Path 12751" d="M25.635,14H20.871A1.471,1.471,0,0,1,19.4,12.629V11.622a.735.735,0,1,1,1.471,0v.9h4.757V9.673H20.871A1.471,1.471,0,0,1,19.4,8.3V5.225A1.471,1.471,0,0,1,20.871,3.85h4.765a1.471,1.471,0,0,1,1.471,1.375V6.232a.735.735,0,1,1-1.471,0v-.9H20.878V8.181h4.757a1.471,1.471,0,0,1,1.471,1.375v3.066A1.471,1.471,0,0,1,25.635,14Z" transform="translate(-5.135 -1.019)" fill="#02074e"/>
          <path id="Path_12752" data-name="Path 12752" d="M24.375,14.569a.735.735,0,0,1-.735-.735V3.385a.735.735,0,0,1,1.471,0V13.834A.735.735,0,0,1,24.375,14.569Z" transform="translate(-6.258 -0.701)" fill="#02074e"/>
          <path id="Path_12753" data-name="Path 12753" d="M34.935,24.551a.735.735,0,0,1-.735-.735V18.985a.735.735,0,1,1,1.471,0v4.824a.735.735,0,0,1-.735.743Z" transform="translate(-9.053 -4.831)" fill="#02074e"/>
          <path id="Path_12754" data-name="Path 12754" d="M42.635,34.982a.735.735,0,0,1-.735-.735V29.305a.735.735,0,0,1,1.471,0v4.934a.735.735,0,0,1-.735.743Z" transform="translate(-11.091 -7.563)" fill="#02074e"/>
        </g>
      </g>
      <g id="Asset_01" data-name="Asset 01" transform="translate(274.093 1596.378)">
        <g id="Layer_2-2" data-name="Layer 2" transform="translate(0 0)">
          <g id="Layer_1" data-name="Layer 1" transform="translate(0 0)">
            <path id="Path_12741" data-name="Path 12741" d="M11.413,20.021,17.2,22.533V34.95a.976.976,0,0,0,.651.922L32.18,40.932a1.03,1.03,0,0,0,.325,0,1.048,1.048,0,0,0,.343,0l14.333-5.061a.976.976,0,0,0,.651-.922V22.533l5.729-2.512a1.627,1.627,0,0,0,0-3L33.1,8.707a1.446,1.446,0,0,0-.615-.127,1.5,1.5,0,0,0-.615.127L11.486,17.021a1.627,1.627,0,0,0,0,3Zm34.34,14.224L32.4,38.962,19.059,34.245V23.4L31.71,29a1.663,1.663,0,0,0,.651.127A1.7,1.7,0,0,0,33.03,29l12.652-5.6ZM32.506,10.568l19.52,7.971-19.52,8.6L13,18.539Z" transform="translate(-10.488 -8.58)" fill="#02074e"/>
          </g>
        </g>
      </g>
    </g>
  </g>
</svg>
