<svg xmlns="http://www.w3.org/2000/svg" width="128" height="128" viewBox="0 0 128 128">
  <g id="Group_1285" data-name="Group 1285" transform="translate(-1396 -1281)">
    <g id="Ellipse_2" data-name="Ellipse 2" transform="translate(1396 1281)" fill="rgba(255,255,255,0)" stroke="#02074e" stroke-width="2">
      <circle cx="64" cy="64" r="64" stroke="none"/>
      <circle cx="64" cy="64" r="63" fill="none"/>
    </g>
    <g id="Layer_2" data-name="Layer 2" transform="translate(1429.022 1316.512)">
      <g id="_1" data-name=" 1" transform="translate(0 -0.005)">
        <path id="Path_12796" data-name="Path 12796" d="M32.534,38.541H21.052A1.029,1.029,0,0,1,20,37.511V17.739a1.029,1.029,0,0,1,1.029-1.029H32.511A3.9,3.9,0,0,1,36.4,20.6v4.174a3.885,3.885,0,0,1-1.26,2.856,3.85,3.85,0,0,1,1.26,2.856v4.174A3.9,3.9,0,0,1,32.534,38.541ZM22.128,36.482H32.534a1.827,1.827,0,0,0,1.827-1.827V30.481a1.827,1.827,0,0,0-1.827-1.873H22.128Zm0-9.886H32.534a1.827,1.827,0,0,0,1.827-1.827V20.6a1.827,1.827,0,0,0-1.827-1.827H22.128Z" transform="translate(3.126 2.617)" fill="#02074e"/>
        <path id="Path_12797" data-name="Path 12797" d="M26.849,19.049A1.029,1.029,0,0,1,25.82,18.02V15.939a1.029,1.029,0,1,1,2.058,0V18.02a1.029,1.029,0,0,1-1.029,1.029Z" transform="translate(4.035 2.336)" fill="#02074e"/>
        <path id="Path_12798" data-name="Path 12798" d="M26.849,37.949A1.029,1.029,0,0,1,25.82,36.92V34.839a1.029,1.029,0,1,1,2.058,0V36.92a1.029,1.029,0,0,1-1.029,1.029Z" transform="translate(4.035 5.29)" fill="#02074e"/>
        <path id="Path_12799" data-name="Path 12799" d="M21.307,18.768H19.4a1.029,1.029,0,0,1,0-2.058h1.908a1.029,1.029,0,0,1,0,2.058Z" transform="translate(2.871 2.617)" fill="#02074e"/>
        <path id="Path_12800" data-name="Path 12800" d="M21.307,35.868H19.4a1.029,1.029,0,0,1,0-2.058h1.908a1.029,1.029,0,1,1,0,2.058Z" transform="translate(2.871 5.29)" fill="#02074e"/>
        <path id="Path_12801" data-name="Path 12801" d="M39.878,47.151H17.411a1.041,1.041,0,0,1-.728-.312l-6.232-6.232a1.041,1.041,0,0,1-.3-.728V17.423a1.041,1.041,0,0,1,.3-.728l6.244-6.244a1.041,1.041,0,0,1,.728-.3H39.878a1.041,1.041,0,0,1,.728.3l6.232,6.232a1.041,1.041,0,0,1,.312.728V39.878a1.029,1.029,0,0,1-.312.728l-6.232,6.232a1.029,1.029,0,0,1-.728.312Zm-22.039-2.07H39.45l5.631-5.631V17.839l-5.62-5.631H17.851l-5.643,5.631V39.462Z" transform="translate(1.586 1.592)" fill="#02074e"/>
        <path id="Path_12802" data-name="Path 12802" d="M44.144,53.359H14.636a.994.994,0,0,1-.728-.3L5.721,44.872a1.018,1.018,0,0,1-.3-.728V14.636a1.029,1.029,0,0,1,.3-.728l8.186-8.186a1.029,1.029,0,0,1,.728-.3H44.144a1.018,1.018,0,0,1,.728.3l8.186,8.186a.994.994,0,0,1,.3.728V44.144a.983.983,0,0,1-.3.717l-8.2,8.2a.983.983,0,0,1-.717.3ZM15.063,51.3H43.716L51.3,43.716V15.052L43.716,7.478H15.063L7.478,15.063V43.716Z" transform="translate(0.847 0.853)" fill="#02074e"/>
        <path id="Path_12803" data-name="Path 12803" d="M52.395,27.278H46.139a1.029,1.029,0,1,1,0-2.058h6.267a1.029,1.029,0,0,1,0,2.058Z" transform="translate(7.05 3.947)" fill="#02074e"/>
        <path id="Path_12804" data-name="Path 12804" d="M52.395,22.838H46.139a1.029,1.029,0,1,1,0-2.058h6.267a1.029,1.029,0,0,1,0,2.058Z" transform="translate(7.05 3.253)" fill="#02074e"/>
        <path id="Path_12805" data-name="Path 12805" d="M52.395,18.368H46.139a1.029,1.029,0,1,1,0-2.058h6.267a1.029,1.029,0,0,1,0,2.058Z" transform="translate(7.05 2.555)" fill="#02074e"/>
        <path id="Path_12806" data-name="Path 12806" d="M52.395,31.788H46.139a1.029,1.029,0,1,1,0-2.058h6.267a1.029,1.029,0,0,1,0,2.058Z" transform="translate(7.05 4.652)" fill="#02074e"/>
        <path id="Path_12807" data-name="Path 12807" d="M52.395,36.278H46.139a1.029,1.029,0,1,1,0-2.058h6.267a1.029,1.029,0,0,1,0,2.058Z" transform="translate(7.05 5.354)" fill="#02074e"/>
        <path id="Path_12808" data-name="Path 12808" d="M7.3,27.278H1.029a1.029,1.029,0,1,1,0-2.058H7.3a1.029,1.029,0,0,1,0,2.058Z" transform="translate(0 3.947)" fill="#02074e"/>
        <path id="Path_12809" data-name="Path 12809" d="M7.3,22.838H1.029a1.029,1.029,0,1,1,0-2.058H7.3a1.029,1.029,0,1,1,0,2.058Z" transform="translate(0 3.253)" fill="#02074e"/>
        <path id="Path_12810" data-name="Path 12810" d="M7.3,18.368H1.029a1.029,1.029,0,1,1,0-2.058H7.3a1.029,1.029,0,1,1,0,2.058Z" transform="translate(0 2.555)" fill="#02074e"/>
        <path id="Path_12811" data-name="Path 12811" d="M7.3,31.788H1.029a1.029,1.029,0,1,1,0-2.058H7.3a1.029,1.029,0,1,1,0,2.058Z" transform="translate(0 4.652)" fill="#02074e"/>
        <path id="Path_12812" data-name="Path 12812" d="M7.3,36.278H1.029a1.029,1.029,0,1,1,0-2.058H7.3a1.029,1.029,0,1,1,0,2.058Z" transform="translate(0 5.354)" fill="#02074e"/>
        <path id="Path_12813" data-name="Path 12813" d="M26.289,53.394a1.029,1.029,0,0,1-1.029-1.029V46.11a1.029,1.029,0,0,1,2.012,0v6.267a1.029,1.029,0,0,1-.983,1.018Z" transform="translate(3.948 7.085)" fill="#02074e"/>
        <path id="Path_12814" data-name="Path 12814" d="M30.759,53.424a1.029,1.029,0,0,1-1.029-1.029V46.139a1.029,1.029,0,1,1,2.058,0v6.267A1.029,1.029,0,0,1,30.759,53.424Z" transform="translate(4.646 7.056)" fill="#02074e"/>
        <path id="Path_12815" data-name="Path 12815" d="M35.239,53.424A1.029,1.029,0,0,1,34.21,52.4V46.14a1.035,1.035,0,1,1,2.07,0v6.267a1.029,1.029,0,0,1-1.041,1.018Z" transform="translate(5.346 7.055)" fill="#02074e"/>
        <path id="Path_12816" data-name="Path 12816" d="M21.809,53.424a1.029,1.029,0,0,1-1.029-1.029V46.139a1.029,1.029,0,1,1,2.058,0v6.267A1.029,1.029,0,0,1,21.809,53.424Z" transform="translate(3.247 7.056)" fill="#02074e"/>
        <path id="Path_12817" data-name="Path 12817" d="M17.339,53.424a1.029,1.029,0,0,1-1.029-1.029V46.139a1.029,1.029,0,1,1,2.058,0v6.267A1.029,1.029,0,0,1,17.339,53.424Z" transform="translate(2.549 7.056)" fill="#02074e"/>
        <path id="Path_12818" data-name="Path 12818" d="M26.289,8.3A1.029,1.029,0,0,1,25.26,7.267V1a1.029,1.029,0,0,1,2.012,0V7.267A1.029,1.029,0,0,1,26.289,8.3Z" transform="translate(3.948 0.035)" fill="#02074e"/>
        <path id="Path_12819" data-name="Path 12819" d="M30.759,8.325A1.029,1.029,0,0,1,29.73,7.3V1.029a1.029,1.029,0,1,1,2.058,0V7.3A1.029,1.029,0,0,1,30.759,8.325Z" transform="translate(4.646 0.006)" fill="#02074e"/>
        <path id="Path_12820" data-name="Path 12820" d="M35.239,8.326A1.029,1.029,0,0,1,34.21,7.3V1.03a1.035,1.035,0,1,1,2.07,0V7.3a1.029,1.029,0,0,1-1.041,1.029Z" transform="translate(5.346 0.005)" fill="#02074e"/>
        <path id="Path_12821" data-name="Path 12821" d="M21.809,8.325A1.029,1.029,0,0,1,20.78,7.3V1.029a1.029,1.029,0,1,1,2.058,0V7.3a1.029,1.029,0,0,1-1.029,1.029Z" transform="translate(3.247 0.006)" fill="#02074e"/>
        <path id="Path_12822" data-name="Path 12822" d="M17.339,8.325A1.029,1.029,0,0,1,16.31,7.3V1.029a1.029,1.029,0,1,1,2.058,0V7.3A1.029,1.029,0,0,1,17.339,8.325Z" transform="translate(2.549 0.006)" fill="#02074e"/>
      </g>
    </g>
  </g>
</svg>
