<svg xmlns="http://www.w3.org/2000/svg" width="91" height="91" viewBox="0 0 91 91"><g transform="translate(-914 -3654)"><path d="M48.4,11.97a4.371,4.371,0,0,0-1.423.336c-.434.174-2.93,1.24-6.616,2.816s-8.478,3.628-13.228,5.663c-9.5,4.07-18.835,8.074-18.835,8.074l.068-.026a4.99,4.99,0,0,0-1.134.586,3.155,3.155,0,0,0-.845.83,2.2,2.2,0,0,0-.366,1.467A3.237,3.237,0,0,0,8.3,34.249l.008,0,9.121,3.122c.233.776,2.767,9.233,3.324,11.024a6.114,6.114,0,0,0,.9,1.951,1.893,1.893,0,0,0,.482.456,1.3,1.3,0,0,0,.214.106h0c.009,0,.017,0,.026.008l-.024-.006c.016.007.033.018.05.024a.719.719,0,0,0,.094.02,2.156,2.156,0,0,0,1.909-.312l.036-.028,5.6-5.2,9.093,7.09.114.052a3.684,3.684,0,0,0,3.828-.336A3.906,3.906,0,0,0,44.2,50.742l.034-.088,6.682-34.826a4.343,4.343,0,0,0,.034-2.061,2.392,2.392,0,0,0-1.045-1.43A2.647,2.647,0,0,0,48.4,11.97Zm.054,2.083a.945.945,0,0,1,.4.042c.047.028.069.025.114.2a2.517,2.517,0,0,1-.054,1.1l0,.012L42.262,50.026a1.718,1.718,0,0,1-.47.612c-.322.262-.681.467-1.633.068l-9.944-7.755-.28-.22-.006.006-2.974-2.231L43.667,20.845a1.025,1.025,0,0,0-1.348-1.517L18.136,35.45,9,32.322s-.907-.5-.95-.857c0-.019-.013,0,.034-.072A1.346,1.346,0,0,1,8.4,31.1a3.214,3.214,0,0,1,.636-.332l.034-.012.034-.014s9.336-4,18.835-8.075c4.75-2.035,9.54-4.086,13.226-5.661s6.346-2.709,6.572-2.8A2.222,2.222,0,0,1,48.449,14.053ZM37.367,25.092,24.694,40l-.006.006c-.02.024-.039.049-.056.074a.95.95,0,0,0-.056.086,1.026,1.026,0,0,0-.134.394v.008l-1.651,7.424c-.027-.08-.047-.11-.076-.2v0C22.19,46.1,19.8,38.127,19.469,37.024ZM26.125,42.446,28.4,44.155l-3.346,3.1Z" transform="translate(927.125 3668.932)" fill="#e59824"/><g transform="translate(914 3654)" fill="none" stroke="#e59824" stroke-width="3"><circle cx="45.5" cy="45.5" r="45.5" stroke="none"/><circle cx="45.5" cy="45.5" r="44" fill="none"/></g></g></svg>