<svg xmlns="http://www.w3.org/2000/svg" width="91" height="91" viewBox="0 0 91 91"><g transform="translate(-1032 -3654)"><g transform="translate(1032 3654)" fill="none" stroke="#e59824" stroke-width="3"><circle cx="45.5" cy="45.5" r="45.5" stroke="none"/><circle cx="45.5" cy="45.5" r="44" fill="none"/></g><g transform="translate(1056.99 3677.165)"><path d="M129.293,108.33A21.574,21.574,0,0,0,110.447,140.4L107.43,151.5l11.33-2.774h0a21.572,21.572,0,1,0,10.532-40.4Z" transform="translate(-107.43 -108.33)" fill="none" stroke="#e59824" stroke-miterlimit="10" stroke-width="2"/><path d="M172.564,185.441a2.071,2.071,0,0,0,.076.421c.458,1.589,3.726,11.242,16.49,15.1a8.1,8.1,0,0,0,2.026.193,5.443,5.443,0,0,0,5.5-4.03,2.121,2.121,0,0,0-.966-2.4,27.265,27.265,0,0,0-4.837-2.232s-.509-.238-2.682,2.853a.731.731,0,0,1-.509.329A15.791,15.791,0,0,1,178.626,188s-.453.067,2.219-2.942c0,0,.2-.227-.022-.816-.173-.447-1.351-3.185-1.908-4.471a2.106,2.106,0,0,0-2.193-1.263l-.044.006C175.249,178.709,172.155,179.884,172.564,185.441Z" transform="translate(-163.012 -168.231)" fill="none" stroke="#e59824" stroke-miterlimit="10" stroke-width="2"/></g></g></svg>