<svg xmlns="http://www.w3.org/2000/svg" width="47.995" height="47.686" viewBox="0 0 47.995 47.686">
  <g id="Group_1171" data-name="Group 1171" transform="translate(-1107.58 -3717.074)">
    <g id="Group_1084" data-name="Group 1084" transform="translate(1108.99 3718.074)">
      <path id="Path_15972" data-name="Path 15972" d="M130.376,108.33a22.643,22.643,0,0,0-19.78,33.655l-3.166,11.656,11.891-2.912h0a22.64,22.64,0,1,0,11.054-42.4Z" transform="translate(-107.43 -108.33)" fill="none" stroke="#707070" stroke-miterlimit="10" stroke-width="2"/>
    </g>
    <path id="Path_15982" data-name="Path 15982" d="M172.566,185.786a2.175,2.175,0,0,0,.08.442c.48,1.668,3.911,11.8,17.307,15.852a8.5,8.5,0,0,0,2.126.2,5.712,5.712,0,0,0,5.77-4.23,2.226,2.226,0,0,0-1.014-2.518,28.617,28.617,0,0,0-5.077-2.343s-.534-.25-2.815,2.995a.767.767,0,0,1-.534.345,16.574,16.574,0,0,1-9.481-8.067s-.476.071,2.329-3.088c0,0,.213-.238-.023-.856-.181-.469-1.418-3.343-2-4.693a2.211,2.211,0,0,0-2.3-1.325l-.046.006C175.384,178.72,172.136,179.953,172.566,185.786Z" transform="translate(946.45 3550.351)" fill="#707070"/>
  </g>
</svg>
